<mxfile host="drawio-plugin" modified="2023-01-08T23:34:16.838Z" agent="5.0 (Windows NT 6.2; Win64; x64) AppleWebKit/537.36 (KHTML, like Gecko) Chrome/98.0.4758.102 Safari/537.36" version="20.5.3" etag="c9YUpa-vEf2ZzfwZiR5P" type="embed"><diagram id="CYa5bM-K4ZWrOZH2Sl78" name="Modelo Conceptual"><mxGraphModel dx="6057" dy="2074" grid="1" gridSize="10" guides="1" tooltips="1" connect="1" arrows="1" fold="1" page="1" pageScale="1" pageWidth="827" pageHeight="1169" math="0" shadow="0"><root><mxCell id="0"/><mxCell id="1" parent="0"/><mxCell id="n9BHDYFtltxvlKAYg7nu-107" style="edgeStyle=orthogonalEdgeStyle;rounded=0;orthogonalLoop=1;jettySize=auto;html=1;exitX=0;exitY=0.5;exitDx=0;exitDy=0;entryX=1;entryY=0.5;entryDx=0;entryDy=0;endArrow=none;endFill=0;" parent="1" source="n9BHDYFtltxvlKAYg7nu-2" target="n9BHDYFtltxvlKAYg7nu-105" edge="1"><mxGeometry relative="1" as="geometry"/></mxCell><mxCell id="n9BHDYFtltxvlKAYg7nu-131" style="edgeStyle=orthogonalEdgeStyle;rounded=0;orthogonalLoop=1;jettySize=auto;html=1;exitX=1;exitY=0.5;exitDx=0;exitDy=0;entryX=0;entryY=0.5;entryDx=0;entryDy=0;endArrow=none;endFill=0;" parent="1" source="n9BHDYFtltxvlKAYg7nu-2" edge="1"><mxGeometry relative="1" as="geometry"><mxPoint x="-550" y="1528" as="targetPoint"/></mxGeometry></mxCell><mxCell id="n9BHDYFtltxvlKAYg7nu-2" value="Instalação&lt;br&gt;Agrícola" style="whiteSpace=wrap;html=1;align=center;" parent="1" vertex="1"><mxGeometry x="-720" y="1508" width="100" height="40" as="geometry"/></mxCell><mxCell id="n9BHDYFtltxvlKAYg7nu-138" style="edgeStyle=orthogonalEdgeStyle;rounded=0;orthogonalLoop=1;jettySize=auto;html=1;exitX=0.5;exitY=1;exitDx=0;exitDy=0;entryX=0.5;entryY=0;entryDx=0;entryDy=0;endArrow=none;endFill=0;" parent="1" source="n9BHDYFtltxvlKAYg7nu-9" target="n9BHDYFtltxvlKAYg7nu-136" edge="1"><mxGeometry relative="1" as="geometry"><Array as="points"><mxPoint x="-70" y="930"/></Array></mxGeometry></mxCell><mxCell id="65" style="edgeStyle=orthogonalEdgeStyle;rounded=0;orthogonalLoop=1;jettySize=auto;html=1;exitX=0.297;exitY=0.004;exitDx=0;exitDy=0;endArrow=none;endFill=0;entryX=1;entryY=1;entryDx=0;entryDy=0;exitPerimeter=0;" parent="1" source="n9BHDYFtltxvlKAYg7nu-9" target="61" edge="1"><mxGeometry relative="1" as="geometry"><Array as="points"><mxPoint x="-80" y="840"/><mxPoint x="-390" y="840"/></Array><mxPoint x="-360" y="520" as="targetPoint"/></mxGeometry></mxCell><mxCell id="71" style="edgeStyle=orthogonalEdgeStyle;rounded=0;orthogonalLoop=1;jettySize=auto;html=1;exitX=0;exitY=0.25;exitDx=0;exitDy=0;entryX=1;entryY=0.5;entryDx=0;entryDy=0;endArrow=none;endFill=0;" parent="1" source="n9BHDYFtltxvlKAYg7nu-9" target="60" edge="1"><mxGeometry relative="1" as="geometry"><Array as="points"><mxPoint x="-110" y="890"/><mxPoint x="-550" y="890"/></Array></mxGeometry></mxCell><mxCell id="V_U-QOIGQv_DgnKet09F-176" style="edgeStyle=orthogonalEdgeStyle;rounded=0;orthogonalLoop=1;jettySize=auto;html=1;exitX=0;exitY=0.5;exitDx=0;exitDy=0;entryX=1;entryY=1;entryDx=0;entryDy=0;endArrow=none;endFill=0;startArrow=none;" parent="1" source="V_U-QOIGQv_DgnKet09F-178" target="V_U-QOIGQv_DgnKet09F-167" edge="1"><mxGeometry relative="1" as="geometry"><Array as="points"><mxPoint x="-660" y="950"/></Array></mxGeometry></mxCell><mxCell id="n9BHDYFtltxvlKAYg7nu-9" value="Setor Agrícola" style="whiteSpace=wrap;html=1;align=center;" parent="1" vertex="1"><mxGeometry x="-110" y="890" width="100" height="40" as="geometry"/></mxCell><mxCell id="n9BHDYFtltxvlKAYg7nu-143" style="edgeStyle=orthogonalEdgeStyle;rounded=0;orthogonalLoop=1;jettySize=auto;html=1;exitX=1;exitY=0.5;exitDx=0;exitDy=0;entryX=0;entryY=0.5;entryDx=0;entryDy=0;endArrow=none;endFill=0;" parent="1" source="n9BHDYFtltxvlKAYg7nu-10" target="n9BHDYFtltxvlKAYg7nu-21" edge="1"><mxGeometry relative="1" as="geometry"/></mxCell><mxCell id="n9BHDYFtltxvlKAYg7nu-232" style="rounded=0;orthogonalLoop=1;jettySize=auto;html=1;exitX=0.25;exitY=1;exitDx=0;exitDy=0;entryX=0.5;entryY=0;entryDx=0;entryDy=0;endArrow=none;endFill=0;" parent="1" source="n9BHDYFtltxvlKAYg7nu-10" target="n9BHDYFtltxvlKAYg7nu-22" edge="1"><mxGeometry relative="1" as="geometry"/></mxCell><mxCell id="62" style="edgeStyle=orthogonalEdgeStyle;rounded=0;orthogonalLoop=1;jettySize=auto;html=1;exitX=0;exitY=0;exitDx=0;exitDy=0;endArrow=none;endFill=0;entryX=0.5;entryY=1;entryDx=0;entryDy=0;" parent="1" source="n9BHDYFtltxvlKAYg7nu-10" target="61" edge="1"><mxGeometry relative="1" as="geometry"><Array as="points"><mxPoint x="-420" y="1110"/></Array></mxGeometry></mxCell><mxCell id="70" style="edgeStyle=orthogonalEdgeStyle;rounded=0;orthogonalLoop=1;jettySize=auto;html=1;exitX=0;exitY=0.25;exitDx=0;exitDy=0;entryX=0.5;entryY=1;entryDx=0;entryDy=0;endArrow=none;endFill=0;" parent="1" source="n9BHDYFtltxvlKAYg7nu-10" target="60" edge="1"><mxGeometry relative="1" as="geometry"/></mxCell><mxCell id="V_U-QOIGQv_DgnKet09F-114" style="rounded=0;orthogonalLoop=1;jettySize=auto;html=1;exitX=0.75;exitY=1;exitDx=0;exitDy=0;entryX=0;entryY=0;entryDx=0;entryDy=0;endArrow=none;endFill=0;" parent="1" source="n9BHDYFtltxvlKAYg7nu-10" target="V_U-QOIGQv_DgnKet09F-113" edge="1"><mxGeometry relative="1" as="geometry"/></mxCell><mxCell id="n9BHDYFtltxvlKAYg7nu-10" value="Cultura" style="whiteSpace=wrap;html=1;align=center;" parent="1" vertex="1"><mxGeometry x="-130" y="1110" width="100" height="40" as="geometry"/></mxCell><mxCell id="n9BHDYFtltxvlKAYg7nu-221" style="rounded=0;orthogonalLoop=1;jettySize=auto;html=1;exitX=0.5;exitY=1;exitDx=0;exitDy=0;endArrow=none;endFill=0;" parent="1" source="n9BHDYFtltxvlKAYg7nu-12" target="n9BHDYFtltxvlKAYg7nu-9" edge="1"><mxGeometry relative="1" as="geometry"/></mxCell><mxCell id="n9BHDYFtltxvlKAYg7nu-12" value="Designação" style="ellipse;whiteSpace=wrap;html=1;align=center;" parent="1" vertex="1"><mxGeometry x="-110" y="760" width="100" height="40" as="geometry"/></mxCell><mxCell id="n9BHDYFtltxvlKAYg7nu-220" style="rounded=0;orthogonalLoop=1;jettySize=auto;html=1;exitX=0;exitY=1;exitDx=0;exitDy=0;entryX=0.935;entryY=0.017;entryDx=0;entryDy=0;entryPerimeter=0;endArrow=none;endFill=0;" parent="1" source="n9BHDYFtltxvlKAYg7nu-14" target="n9BHDYFtltxvlKAYg7nu-9" edge="1"><mxGeometry relative="1" as="geometry"/></mxCell><mxCell id="n9BHDYFtltxvlKAYg7nu-14" value="área" style="ellipse;whiteSpace=wrap;html=1;align=center;" parent="1" vertex="1"><mxGeometry x="10" y="780" width="100" height="40" as="geometry"/></mxCell><mxCell id="n9BHDYFtltxvlKAYg7nu-20" value="Edifício" style="whiteSpace=wrap;html=1;align=center;" parent="1" vertex="1"><mxGeometry x="-1070" y="1508" width="100" height="40" as="geometry"/></mxCell><mxCell id="n9BHDYFtltxvlKAYg7nu-21" value="Objetivo" style="ellipse;whiteSpace=wrap;html=1;align=center;fontFamily=Helvetica;fontSize=12;fontColor=default;strokeColor=default;fillColor=default;" parent="1" vertex="1"><mxGeometry y="1110" width="100" height="40" as="geometry"/></mxCell><mxCell id="n9BHDYFtltxvlKAYg7nu-22" value="Tipo Cultura" style="ellipse;whiteSpace=wrap;html=1;align=center;fontFamily=Helvetica;fontSize=12;fontColor=default;strokeColor=default;fillColor=default;" parent="1" vertex="1"><mxGeometry x="-190" y="1194" width="100" height="40" as="geometry"/></mxCell><mxCell id="n9BHDYFtltxvlKAYg7nu-164" style="rounded=0;orthogonalLoop=1;jettySize=auto;html=1;exitX=0;exitY=0;exitDx=0;exitDy=0;entryX=1;entryY=1;entryDx=0;entryDy=0;endArrow=none;endFill=0;" parent="1" source="n9BHDYFtltxvlKAYg7nu-24" target="n9BHDYFtltxvlKAYg7nu-31" edge="1"><mxGeometry relative="1" as="geometry"/></mxCell><mxCell id="n9BHDYFtltxvlKAYg7nu-165" style="rounded=0;orthogonalLoop=1;jettySize=auto;html=1;exitX=0;exitY=0.25;exitDx=0;exitDy=0;entryX=1;entryY=0.5;entryDx=0;entryDy=0;endArrow=none;endFill=0;" parent="1" source="n9BHDYFtltxvlKAYg7nu-24" target="n9BHDYFtltxvlKAYg7nu-29" edge="1"><mxGeometry relative="1" as="geometry"/></mxCell><mxCell id="n9BHDYFtltxvlKAYg7nu-166" style="rounded=0;orthogonalLoop=1;jettySize=auto;html=1;exitX=0;exitY=0.5;exitDx=0;exitDy=0;entryX=1;entryY=0.5;entryDx=0;entryDy=0;endArrow=none;endFill=0;" parent="1" source="n9BHDYFtltxvlKAYg7nu-24" target="n9BHDYFtltxvlKAYg7nu-33" edge="1"><mxGeometry relative="1" as="geometry"/></mxCell><mxCell id="54" style="edgeStyle=orthogonalEdgeStyle;rounded=0;orthogonalLoop=1;jettySize=auto;html=1;exitX=0.5;exitY=1;exitDx=0;exitDy=0;entryX=0;entryY=0.5;entryDx=0;entryDy=0;endArrow=none;endFill=0;" parent="1" source="n9BHDYFtltxvlKAYg7nu-24" target="60" edge="1"><mxGeometry relative="1" as="geometry"><mxPoint x="-650" y="649.9999999999998" as="targetPoint"/></mxGeometry></mxCell><mxCell id="V_U-QOIGQv_DgnKet09F-157" style="edgeStyle=orthogonalEdgeStyle;rounded=0;orthogonalLoop=1;jettySize=auto;html=1;exitX=0.25;exitY=1;exitDx=0;exitDy=0;entryX=0.5;entryY=0;entryDx=0;entryDy=0;endArrow=none;endFill=0;" parent="1" source="n9BHDYFtltxvlKAYg7nu-24" target="43" edge="1"><mxGeometry relative="1" as="geometry"/></mxCell><mxCell id="agGOUGzYTLRCkL8UZT49-102" style="edgeStyle=orthogonalEdgeStyle;rounded=0;orthogonalLoop=1;jettySize=auto;html=1;exitX=0.5;exitY=0;exitDx=0;exitDy=0;entryX=0.5;entryY=1;entryDx=0;entryDy=0;endArrow=none;endFill=0;" parent="1" source="n9BHDYFtltxvlKAYg7nu-24" target="agGOUGzYTLRCkL8UZT49-101" edge="1"><mxGeometry relative="1" as="geometry"/></mxCell><mxCell id="n9BHDYFtltxvlKAYg7nu-24" value="Fatores Produção" style="whiteSpace=wrap;html=1;align=center;" parent="1" vertex="1"><mxGeometry x="-740" y="500" width="100" height="40" as="geometry"/></mxCell><mxCell id="n9BHDYFtltxvlKAYg7nu-29" value="Nome Comercial" style="ellipse;whiteSpace=wrap;html=1;align=center;" parent="1" vertex="1"><mxGeometry x="-870" y="425" width="100" height="40" as="geometry"/></mxCell><mxCell id="n9BHDYFtltxvlKAYg7nu-31" value="Tipo" style="ellipse;whiteSpace=wrap;html=1;align=center;" parent="1" vertex="1"><mxGeometry x="-845" y="380" width="100" height="40" as="geometry"/></mxCell><mxCell id="n9BHDYFtltxvlKAYg7nu-167" style="rounded=0;orthogonalLoop=1;jettySize=auto;html=1;exitX=1;exitY=0.5;exitDx=0;exitDy=0;entryX=0;entryY=0.75;entryDx=0;entryDy=0;endArrow=none;endFill=0;edgeStyle=orthogonalEdgeStyle;" parent="1" source="96" target="n9BHDYFtltxvlKAYg7nu-24" edge="1"><mxGeometry relative="1" as="geometry"><mxPoint x="-790" y="599.9999999999998" as="sourcePoint"/><Array as="points"><mxPoint x="-810" y="590"/><mxPoint x="-810" y="540"/><mxPoint x="-740" y="540"/></Array></mxGeometry></mxCell><mxCell id="n9BHDYFtltxvlKAYg7nu-33" value="Formulação" style="ellipse;whiteSpace=wrap;html=1;align=center;fontFamily=Helvetica;fontSize=12;fontColor=default;strokeColor=default;fillColor=default;" parent="1" vertex="1"><mxGeometry x="-880" y="477.5" width="100" height="40" as="geometry"/></mxCell><mxCell id="n9BHDYFtltxvlKAYg7nu-178" style="rounded=0;orthogonalLoop=1;jettySize=auto;html=1;exitX=1;exitY=0.75;exitDx=0;exitDy=0;endArrow=none;endFill=0;entryX=0;entryY=0.5;entryDx=0;entryDy=0;" parent="1" source="n9BHDYFtltxvlKAYg7nu-39" target="n9BHDYFtltxvlKAYg7nu-41" edge="1"><mxGeometry relative="1" as="geometry"><mxPoint x="105" y="550" as="targetPoint"/></mxGeometry></mxCell><mxCell id="V_U-QOIGQv_DgnKet09F-122" style="edgeStyle=orthogonalEdgeStyle;rounded=0;orthogonalLoop=1;jettySize=auto;html=1;exitX=1;exitY=0.5;exitDx=0;exitDy=0;endArrow=none;endFill=0;entryX=0.375;entryY=0.993;entryDx=0;entryDy=0;entryPerimeter=0;startArrow=none;" parent="1" source="V_U-QOIGQv_DgnKet09F-135" target="n9BHDYFtltxvlKAYg7nu-76" edge="1"><mxGeometry relative="1" as="geometry"><mxPoint x="260.00000000000045" y="230" as="targetPoint"/></mxGeometry></mxCell><mxCell id="n9BHDYFtltxvlKAYg7nu-39" value="&amp;nbsp;Rega" style="whiteSpace=wrap;html=1;align=center;fontFamily=Helvetica;fontSize=12;fontColor=default;strokeColor=default;fillColor=default;" parent="1" vertex="1"><mxGeometry x="-55" y="470" width="100" height="40" as="geometry"/></mxCell><mxCell id="V_U-QOIGQv_DgnKet09F-97" style="rounded=0;orthogonalLoop=1;jettySize=auto;html=1;exitX=0.5;exitY=0;exitDx=0;exitDy=0;entryX=0;entryY=1;entryDx=0;entryDy=0;endArrow=none;endFill=0;" parent="1" source="n9BHDYFtltxvlKAYg7nu-40" target="61" edge="1"><mxGeometry relative="1" as="geometry"/></mxCell><mxCell id="n9BHDYFtltxvlKAYg7nu-40" value="OrdemRega&amp;nbsp;" style="ellipse;whiteSpace=wrap;html=1;align=center;" parent="1" vertex="1"><mxGeometry x="-550" y="547.5" width="100" height="40" as="geometry"/></mxCell><mxCell id="n9BHDYFtltxvlKAYg7nu-41" value="Tempo Rega" style="ellipse;whiteSpace=wrap;html=1;align=center;" parent="1" vertex="1"><mxGeometry x="120" y="480" width="100" height="40" as="geometry"/></mxCell><mxCell id="V_U-QOIGQv_DgnKet09F-98" style="rounded=0;orthogonalLoop=1;jettySize=auto;html=1;exitX=0;exitY=0;exitDx=0;exitDy=0;entryX=1;entryY=0;entryDx=0;entryDy=0;endArrow=none;endFill=0;" parent="1" source="n9BHDYFtltxvlKAYg7nu-42" target="61" edge="1"><mxGeometry relative="1" as="geometry"/></mxCell><mxCell id="n9BHDYFtltxvlKAYg7nu-42" value="Periodicidade Rega Setor" style="ellipse;whiteSpace=wrap;html=1;align=center;" parent="1" vertex="1"><mxGeometry x="-340" y="390" width="100" height="40" as="geometry"/></mxCell><mxCell id="obOQ1xtaaC5ebbHOoG0I-74" style="edgeStyle=orthogonalEdgeStyle;rounded=0;orthogonalLoop=1;jettySize=auto;html=1;exitX=0;exitY=0.5;exitDx=0;exitDy=0;entryX=1;entryY=0.5;entryDx=0;entryDy=0;endArrow=none;endFill=0;" parent="1" source="n9BHDYFtltxvlKAYg7nu-43" target="obOQ1xtaaC5ebbHOoG0I-73" edge="1"><mxGeometry relative="1" as="geometry"/></mxCell><mxCell id="obOQ1xtaaC5ebbHOoG0I-83" style="edgeStyle=orthogonalEdgeStyle;rounded=0;orthogonalLoop=1;jettySize=auto;html=1;exitX=1;exitY=0.5;exitDx=0;exitDy=0;entryX=0;entryY=0.5;entryDx=0;entryDy=0;endArrow=none;endFill=0;" parent="1" source="n9BHDYFtltxvlKAYg7nu-43" target="obOQ1xtaaC5ebbHOoG0I-78" edge="1"><mxGeometry relative="1" as="geometry"/></mxCell><mxCell id="n9BHDYFtltxvlKAYg7nu-43" value="Estação Metereológica" style="whiteSpace=wrap;html=1;align=center;" parent="1" vertex="1"><mxGeometry x="-1115" y="980" width="100" height="40" as="geometry"/></mxCell><mxCell id="n9BHDYFtltxvlKAYg7nu-44" value="Sensor" style="whiteSpace=wrap;html=1;align=center;" parent="1" vertex="1"><mxGeometry x="-1290" y="1203" width="100" height="40" as="geometry"/></mxCell><mxCell id="OKjxkkXSC3GkU-OfnmQm-22" style="edgeStyle=orthogonalEdgeStyle;rounded=0;orthogonalLoop=1;jettySize=auto;html=1;exitX=1;exitY=0.5;exitDx=0;exitDy=0;entryX=0;entryY=0.5;entryDx=0;entryDy=0;endArrow=none;endFill=0;" parent="1" source="n9BHDYFtltxvlKAYg7nu-54" target="OKjxkkXSC3GkU-OfnmQm-20" edge="1"><mxGeometry relative="1" as="geometry"/></mxCell><mxCell id="OKjxkkXSC3GkU-OfnmQm-23" style="edgeStyle=orthogonalEdgeStyle;rounded=0;orthogonalLoop=1;jettySize=auto;html=1;exitX=1;exitY=0.75;exitDx=0;exitDy=0;entryX=0;entryY=0.5;entryDx=0;entryDy=0;endArrow=none;endFill=0;" parent="1" source="n9BHDYFtltxvlKAYg7nu-54" target="OKjxkkXSC3GkU-OfnmQm-21" edge="1"><mxGeometry relative="1" as="geometry"><Array as="points"><mxPoint x="1320" y="480"/><mxPoint x="1320" y="540"/></Array></mxGeometry></mxCell><mxCell id="sahUQvl5ozFRLX7pKj-Z-72" style="rounded=0;orthogonalLoop=1;jettySize=auto;html=1;exitX=0.613;exitY=0.029;exitDx=0;exitDy=0;entryX=0;entryY=1;entryDx=0;entryDy=0;endArrow=none;endFill=0;exitPerimeter=0;" parent="1" source="n9BHDYFtltxvlKAYg7nu-54" target="OKjxkkXSC3GkU-OfnmQm-1" edge="1"><mxGeometry relative="1" as="geometry"/></mxCell><mxCell id="n9BHDYFtltxvlKAYg7nu-54" value="Cliente" style="whiteSpace=wrap;html=1;align=center;" parent="1" vertex="1"><mxGeometry x="1080" y="450" width="100" height="40" as="geometry"/></mxCell><mxCell id="V_U-QOIGQv_DgnKet09F-110" value="" style="edgeStyle=orthogonalEdgeStyle;rounded=0;orthogonalLoop=1;jettySize=auto;html=1;endArrow=none;endFill=0;" parent="1" source="n9BHDYFtltxvlKAYg7nu-58" target="V_U-QOIGQv_DgnKet09F-108" edge="1"><mxGeometry relative="1" as="geometry"/></mxCell><mxCell id="V_U-QOIGQv_DgnKet09F-126" style="edgeStyle=orthogonalEdgeStyle;rounded=0;orthogonalLoop=1;jettySize=auto;html=1;exitX=1;exitY=0.5;exitDx=0;exitDy=0;entryX=0;entryY=0.5;entryDx=0;entryDy=0;endArrow=none;endFill=0;" parent="1" source="n9BHDYFtltxvlKAYg7nu-58" target="V_U-QOIGQv_DgnKet09F-125" edge="1"><mxGeometry relative="1" as="geometry"/></mxCell><mxCell id="V_U-QOIGQv_DgnKet09F-141" style="edgeStyle=orthogonalEdgeStyle;rounded=0;orthogonalLoop=1;jettySize=auto;html=1;exitX=0.5;exitY=1;exitDx=0;exitDy=0;entryX=0.5;entryY=0;entryDx=0;entryDy=0;endArrow=none;endFill=0;" parent="1" source="n9BHDYFtltxvlKAYg7nu-58" target="61" edge="1"><mxGeometry relative="1" as="geometry"/></mxCell><mxCell id="n9BHDYFtltxvlKAYg7nu-58" value="Plano Anual" style="whiteSpace=wrap;html=1;align=center;" parent="1" vertex="1"><mxGeometry x="-470" y="40" width="100" height="40" as="geometry"/></mxCell><mxCell id="n9BHDYFtltxvlKAYg7nu-239" style="rounded=0;orthogonalLoop=1;jettySize=auto;html=1;entryX=0.5;entryY=0;entryDx=0;entryDy=0;endArrow=none;endFill=0;" parent="1" source="n9BHDYFtltxvlKAYg7nu-65" target="n9BHDYFtltxvlKAYg7nu-54" edge="1"><mxGeometry relative="1" as="geometry"/></mxCell><mxCell id="n9BHDYFtltxvlKAYg7nu-65" value="tipo" style="ellipse;whiteSpace=wrap;html=1;align=center;" parent="1" vertex="1"><mxGeometry x="1070" y="330" width="100" height="40" as="geometry"/></mxCell><mxCell id="n9BHDYFtltxvlKAYg7nu-226" style="edgeStyle=orthogonalEdgeStyle;rounded=0;orthogonalLoop=1;jettySize=auto;html=1;exitX=0;exitY=0.5;exitDx=0;exitDy=0;entryX=1;entryY=0.5;entryDx=0;entryDy=0;endArrow=none;endFill=0;" parent="1" source="n9BHDYFtltxvlKAYg7nu-66" target="n9BHDYFtltxvlKAYg7nu-215" edge="1"><mxGeometry relative="1" as="geometry"/></mxCell><mxCell id="n9BHDYFtltxvlKAYg7nu-66" value="Colheita" style="whiteSpace=wrap;html=1;align=center;" parent="1" vertex="1"><mxGeometry x="240" y="960" width="100" height="40" as="geometry"/></mxCell><mxCell id="n9BHDYFtltxvlKAYg7nu-229" style="edgeStyle=orthogonalEdgeStyle;rounded=0;orthogonalLoop=1;jettySize=auto;html=1;exitX=0;exitY=0.5;exitDx=0;exitDy=0;entryX=1;entryY=0.5;entryDx=0;entryDy=0;endArrow=none;endFill=0;" parent="1" source="n9BHDYFtltxvlKAYg7nu-68" target="n9BHDYFtltxvlKAYg7nu-66" edge="1"><mxGeometry relative="1" as="geometry"/></mxCell><mxCell id="n9BHDYFtltxvlKAYg7nu-68" value="ano" style="ellipse;whiteSpace=wrap;html=1;align=center;" parent="1" vertex="1"><mxGeometry x="364" y="960" width="100" height="40" as="geometry"/></mxCell><mxCell id="n9BHDYFtltxvlKAYg7nu-71" value="estado&lt;br&gt;atual" style="ellipse;whiteSpace=wrap;html=1;align=center;" parent="1" vertex="1"><mxGeometry x="1080" y="975" width="100" height="35" as="geometry"/></mxCell><mxCell id="n9BHDYFtltxvlKAYg7nu-73" value="data pedido" style="ellipse;whiteSpace=wrap;html=1;align=center;" parent="1" vertex="1"><mxGeometry x="782" y="805" width="100" height="40" as="geometry"/></mxCell><mxCell id="n9BHDYFtltxvlKAYg7nu-270" style="rounded=0;orthogonalLoop=1;jettySize=auto;html=1;exitX=0.993;exitY=0.114;exitDx=0;exitDy=0;entryX=0;entryY=0.5;entryDx=0;entryDy=0;endArrow=none;endFill=0;exitPerimeter=0;" parent="1" source="n9BHDYFtltxvlKAYg7nu-76" target="n9BHDYFtltxvlKAYg7nu-85" edge="1"><mxGeometry relative="1" as="geometry"/></mxCell><mxCell id="V_U-QOIGQv_DgnKet09F-124" style="rounded=0;orthogonalLoop=1;jettySize=auto;html=1;entryX=0;entryY=0.5;entryDx=0;entryDy=0;endArrow=none;endFill=0;" parent="1" target="n9BHDYFtltxvlKAYg7nu-80" edge="1"><mxGeometry relative="1" as="geometry"><mxPoint x="320" y="190" as="sourcePoint"/></mxGeometry></mxCell><mxCell id="V_U-QOIGQv_DgnKet09F-140" style="rounded=0;orthogonalLoop=1;jettySize=auto;html=1;exitX=0.75;exitY=1;exitDx=0;exitDy=0;entryX=0;entryY=0;entryDx=0;entryDy=0;endArrow=none;endFill=0;" parent="1" source="n9BHDYFtltxvlKAYg7nu-76" target="V_U-QOIGQv_DgnKet09F-132" edge="1"><mxGeometry relative="1" as="geometry"/></mxCell><mxCell id="n9BHDYFtltxvlKAYg7nu-76" value="Operação" style="whiteSpace=wrap;html=1;align=center;" parent="1" vertex="1"><mxGeometry x="220" y="165" width="100" height="40" as="geometry"/></mxCell><mxCell id="n9BHDYFtltxvlKAYg7nu-80" value="data operação" style="ellipse;whiteSpace=wrap;html=1;align=center;" parent="1" vertex="1"><mxGeometry x="380" y="205" width="100" height="40" as="geometry"/></mxCell><mxCell id="34" style="edgeStyle=none;rounded=0;orthogonalLoop=1;jettySize=auto;html=1;exitX=1;exitY=0.5;exitDx=0;exitDy=0;entryX=0;entryY=0.5;entryDx=0;entryDy=0;endArrow=none;endFill=0;" parent="1" source="n9BHDYFtltxvlKAYg7nu-84" target="33" edge="1"><mxGeometry relative="1" as="geometry"/></mxCell><mxCell id="V_U-QOIGQv_DgnKet09F-111" value="" style="edgeStyle=orthogonalEdgeStyle;rounded=0;orthogonalLoop=1;jettySize=auto;html=1;endArrow=none;endFill=0;" parent="1" source="n9BHDYFtltxvlKAYg7nu-84" target="V_U-QOIGQv_DgnKet09F-109" edge="1"><mxGeometry relative="1" as="geometry"/></mxCell><mxCell id="n9BHDYFtltxvlKAYg7nu-84" value="Calendário Operações" style="whiteSpace=wrap;html=1;align=center;" parent="1" vertex="1"><mxGeometry x="-260" y="185" width="100" height="40" as="geometry"/></mxCell><mxCell id="n9BHDYFtltxvlKAYg7nu-85" value="estado" style="ellipse;whiteSpace=wrap;html=1;align=center;" parent="1" vertex="1"><mxGeometry x="380" y="125" width="100" height="40" as="geometry"/></mxCell><mxCell id="n9BHDYFtltxvlKAYg7nu-181" style="rounded=0;orthogonalLoop=1;jettySize=auto;html=1;endArrow=none;endFill=0;" parent="1" source="n9BHDYFtltxvlKAYg7nu-86" target="n9BHDYFtltxvlKAYg7nu-44" edge="1"><mxGeometry relative="1" as="geometry"/></mxCell><mxCell id="n9BHDYFtltxvlKAYg7nu-86" value="identificador" style="ellipse;whiteSpace=wrap;html=1;align=center;" parent="1" vertex="1"><mxGeometry x="-1225" y="1310" width="100" height="40" as="geometry"/></mxCell><mxCell id="n9BHDYFtltxvlKAYg7nu-180" style="rounded=0;orthogonalLoop=1;jettySize=auto;html=1;exitX=0.5;exitY=0;exitDx=0;exitDy=0;entryX=0.25;entryY=1;entryDx=0;entryDy=0;endArrow=none;endFill=0;" parent="1" source="n9BHDYFtltxvlKAYg7nu-87" target="n9BHDYFtltxvlKAYg7nu-44" edge="1"><mxGeometry relative="1" as="geometry"/></mxCell><mxCell id="n9BHDYFtltxvlKAYg7nu-87" value="Valor Referencia" style="ellipse;whiteSpace=wrap;html=1;align=center;" parent="1" vertex="1"><mxGeometry x="-1350" y="1310" width="100" height="40" as="geometry"/></mxCell><mxCell id="n9BHDYFtltxvlKAYg7nu-211" style="rounded=0;orthogonalLoop=1;jettySize=auto;html=1;exitX=0.61;exitY=1;exitDx=0;exitDy=0;entryX=0;entryY=0;entryDx=0;entryDy=0;endArrow=none;endFill=0;exitPerimeter=0;" parent="1" source="n9BHDYFtltxvlKAYg7nu-88" target="n9BHDYFtltxvlKAYg7nu-89" edge="1"><mxGeometry relative="1" as="geometry"/></mxCell><mxCell id="n9BHDYFtltxvlKAYg7nu-212" style="rounded=0;orthogonalLoop=1;jettySize=auto;html=1;entryX=0.5;entryY=0;entryDx=0;entryDy=0;endArrow=none;endFill=0;" parent="1" target="n9BHDYFtltxvlKAYg7nu-92" edge="1"><mxGeometry relative="1" as="geometry"><mxPoint x="-1740" y="1270" as="sourcePoint"/></mxGeometry></mxCell><mxCell id="n9BHDYFtltxvlKAYg7nu-88" value="Leitura" style="whiteSpace=wrap;html=1;align=center;" parent="1" vertex="1"><mxGeometry x="-1760" y="1229" width="100" height="40" as="geometry"/></mxCell><mxCell id="n9BHDYFtltxvlKAYg7nu-89" value="Valor lido" style="ellipse;whiteSpace=wrap;html=1;align=center;" parent="1" vertex="1"><mxGeometry x="-1680" y="1320" width="100" height="40" as="geometry"/></mxCell><mxCell id="n9BHDYFtltxvlKAYg7nu-92" value="Instante Leitura" style="ellipse;whiteSpace=wrap;html=1;align=center;" parent="1" vertex="1"><mxGeometry x="-1840" y="1320" width="100" height="40" as="geometry"/></mxCell><mxCell id="n9BHDYFtltxvlKAYg7nu-93" value="Tipo Sensor" style="whiteSpace=wrap;html=1;align=center;" parent="1" vertex="1"><mxGeometry x="-813" y="1129" width="100" height="40" as="geometry"/></mxCell><mxCell id="n9BHDYFtltxvlKAYg7nu-98" value="valorSetor (t)" style="ellipse;whiteSpace=wrap;html=1;align=center;" parent="1" vertex="1"><mxGeometry x="20" y="882.5" width="100" height="40" as="geometry"/></mxCell><mxCell id="n9BHDYFtltxvlKAYg7nu-106" style="edgeStyle=orthogonalEdgeStyle;rounded=0;orthogonalLoop=1;jettySize=auto;html=1;exitX=0;exitY=0.5;exitDx=0;exitDy=0;entryX=1;entryY=0.5;entryDx=0;entryDy=0;endArrow=none;endFill=0;" parent="1" source="n9BHDYFtltxvlKAYg7nu-105" target="n9BHDYFtltxvlKAYg7nu-20" edge="1"><mxGeometry relative="1" as="geometry"/></mxCell><mxCell id="n9BHDYFtltxvlKAYg7nu-105" value="tem" style="shape=rhombus;perimeter=rhombusPerimeter;whiteSpace=wrap;html=1;align=center;" parent="1" vertex="1"><mxGeometry x="-900" y="1498" width="120" height="60" as="geometry"/></mxCell><mxCell id="n9BHDYFtltxvlKAYg7nu-108" value="N" style="text;html=1;strokeColor=none;fillColor=none;align=center;verticalAlign=middle;whiteSpace=wrap;rounded=0;" parent="1" vertex="1"><mxGeometry x="-980" y="1518" width="50" height="10" as="geometry"/></mxCell><mxCell id="n9BHDYFtltxvlKAYg7nu-109" value="1" style="text;html=1;strokeColor=none;fillColor=none;align=center;verticalAlign=middle;whiteSpace=wrap;rounded=0;" parent="1" vertex="1"><mxGeometry x="-740" y="1513" width="30" height="20" as="geometry"/></mxCell><mxCell id="n9BHDYFtltxvlKAYg7nu-132" style="edgeStyle=orthogonalEdgeStyle;rounded=0;orthogonalLoop=1;jettySize=auto;html=1;exitX=1;exitY=0.5;exitDx=0;exitDy=0;entryX=0;entryY=0.5;entryDx=0;entryDy=0;endArrow=none;endFill=0;" parent="1" source="n9BHDYFtltxvlKAYg7nu-130" target="n9BHDYFtltxvlKAYg7nu-9" edge="1"><mxGeometry relative="1" as="geometry"><Array as="points"><mxPoint x="-345" y="930"/><mxPoint x="-110" y="930"/></Array></mxGeometry></mxCell><mxCell id="n9BHDYFtltxvlKAYg7nu-130" value="tem" style="shape=rhombus;perimeter=rhombusPerimeter;whiteSpace=wrap;html=1;align=center;" parent="1" vertex="1"><mxGeometry x="-550" y="1498" width="120" height="60" as="geometry"/></mxCell><mxCell id="n9BHDYFtltxvlKAYg7nu-133" value="1" style="text;html=1;strokeColor=none;fillColor=none;align=center;verticalAlign=middle;whiteSpace=wrap;rounded=0;" parent="1" vertex="1"><mxGeometry x="-120" y="880" width="10" height="10" as="geometry"/></mxCell><mxCell id="n9BHDYFtltxvlKAYg7nu-134" value="1" style="text;html=1;strokeColor=none;fillColor=none;align=center;verticalAlign=middle;whiteSpace=wrap;rounded=0;" parent="1" vertex="1"><mxGeometry x="-640" y="1503" width="60" height="30" as="geometry"/></mxCell><mxCell id="n9BHDYFtltxvlKAYg7nu-139" style="edgeStyle=orthogonalEdgeStyle;rounded=0;orthogonalLoop=1;jettySize=auto;html=1;exitX=0.5;exitY=1;exitDx=0;exitDy=0;entryX=0.5;entryY=0;entryDx=0;entryDy=0;endArrow=none;endFill=0;" parent="1" source="n9BHDYFtltxvlKAYg7nu-136" target="n9BHDYFtltxvlKAYg7nu-10" edge="1"><mxGeometry relative="1" as="geometry"/></mxCell><mxCell id="n9BHDYFtltxvlKAYg7nu-219" style="rounded=0;orthogonalLoop=1;jettySize=auto;html=1;exitX=0;exitY=0;exitDx=0;exitDy=0;entryX=1;entryY=1;entryDx=0;entryDy=0;endArrow=none;endFill=0;" parent="1" source="n9BHDYFtltxvlKAYg7nu-136" target="n9BHDYFtltxvlKAYg7nu-218" edge="1"><mxGeometry relative="1" as="geometry"/></mxCell><mxCell id="n9BHDYFtltxvlKAYg7nu-136" value="possuí" style="shape=rhombus;perimeter=rhombusPerimeter;whiteSpace=wrap;html=1;align=center;" parent="1" vertex="1"><mxGeometry x="-130" y="1010" width="120" height="60" as="geometry"/></mxCell><mxCell id="n9BHDYFtltxvlKAYg7nu-140" value="N" style="text;html=1;strokeColor=none;fillColor=none;align=center;verticalAlign=middle;whiteSpace=wrap;rounded=0;" parent="1" vertex="1"><mxGeometry x="-80" y="1099" width="30" height="10" as="geometry"/></mxCell><mxCell id="n9BHDYFtltxvlKAYg7nu-141" value="N" style="text;html=1;strokeColor=none;fillColor=none;align=center;verticalAlign=middle;whiteSpace=wrap;rounded=0;" parent="1" vertex="1"><mxGeometry x="-75" y="925" width="30" height="30" as="geometry"/></mxCell><mxCell id="n9BHDYFtltxvlKAYg7nu-195" style="edgeStyle=orthogonalEdgeStyle;rounded=0;orthogonalLoop=1;jettySize=auto;html=1;exitX=0;exitY=0.5;exitDx=0;exitDy=0;entryX=1;entryY=0;entryDx=0;entryDy=0;endArrow=none;endFill=0;" parent="1" source="n9BHDYFtltxvlKAYg7nu-193" target="n9BHDYFtltxvlKAYg7nu-44" edge="1"><mxGeometry relative="1" as="geometry"/></mxCell><mxCell id="n9BHDYFtltxvlKAYg7nu-196" style="edgeStyle=orthogonalEdgeStyle;rounded=0;orthogonalLoop=1;jettySize=auto;html=1;exitX=1;exitY=0.5;exitDx=0;exitDy=0;entryX=0;entryY=0.5;entryDx=0;entryDy=0;endArrow=none;endFill=0;" parent="1" source="n9BHDYFtltxvlKAYg7nu-193" target="n9BHDYFtltxvlKAYg7nu-93" edge="1"><mxGeometry relative="1" as="geometry"/></mxCell><mxCell id="n9BHDYFtltxvlKAYg7nu-193" value="possuí" style="shape=rhombus;perimeter=rhombusPerimeter;whiteSpace=wrap;html=1;align=center;" parent="1" vertex="1"><mxGeometry x="-1020" y="1128" width="120" height="60" as="geometry"/></mxCell><mxCell id="n9BHDYFtltxvlKAYg7nu-207" style="edgeStyle=orthogonalEdgeStyle;rounded=0;orthogonalLoop=1;jettySize=auto;html=1;exitX=1;exitY=0.5;exitDx=0;exitDy=0;entryX=0;entryY=0.25;entryDx=0;entryDy=0;endArrow=none;endFill=0;" parent="1" source="n9BHDYFtltxvlKAYg7nu-206" target="n9BHDYFtltxvlKAYg7nu-44" edge="1"><mxGeometry relative="1" as="geometry"/></mxCell><mxCell id="n9BHDYFtltxvlKAYg7nu-208" style="edgeStyle=orthogonalEdgeStyle;rounded=0;orthogonalLoop=1;jettySize=auto;html=1;exitX=0;exitY=0.5;exitDx=0;exitDy=0;entryX=1;entryY=0.5;entryDx=0;entryDy=0;endArrow=none;endFill=0;" parent="1" source="n9BHDYFtltxvlKAYg7nu-206" target="n9BHDYFtltxvlKAYg7nu-88" edge="1"><mxGeometry relative="1" as="geometry"/></mxCell><mxCell id="n9BHDYFtltxvlKAYg7nu-206" value="executa" style="shape=rhombus;perimeter=rhombusPerimeter;whiteSpace=wrap;html=1;align=center;" parent="1" vertex="1"><mxGeometry x="-1600" y="1219" width="120" height="60" as="geometry"/></mxCell><mxCell id="n9BHDYFtltxvlKAYg7nu-209" value="1" style="text;html=1;strokeColor=none;fillColor=none;align=center;verticalAlign=middle;whiteSpace=wrap;rounded=0;" parent="1" vertex="1"><mxGeometry x="-1330" y="1208" width="60" height="30" as="geometry"/></mxCell><mxCell id="n9BHDYFtltxvlKAYg7nu-210" value="N" style="text;html=1;strokeColor=none;fillColor=none;align=center;verticalAlign=middle;whiteSpace=wrap;rounded=0;" parent="1" vertex="1"><mxGeometry x="-1670" y="1219" width="60" height="30" as="geometry"/></mxCell><mxCell id="n9BHDYFtltxvlKAYg7nu-227" style="edgeStyle=orthogonalEdgeStyle;rounded=0;orthogonalLoop=1;jettySize=auto;html=1;endArrow=none;endFill=0;exitX=0;exitY=0.5;exitDx=0;exitDy=0;" parent="1" source="n9BHDYFtltxvlKAYg7nu-215" edge="1"><mxGeometry relative="1" as="geometry"><mxPoint x="190" y="920" as="sourcePoint"/><mxPoint x="-10" y="930" as="targetPoint"/><Array as="points"><mxPoint x="-10" y="980"/></Array></mxGeometry></mxCell><mxCell id="n9BHDYFtltxvlKAYg7nu-228" style="edgeStyle=orthogonalEdgeStyle;rounded=0;orthogonalLoop=1;jettySize=auto;html=1;exitX=0.5;exitY=1;exitDx=0;exitDy=0;entryX=1;entryY=0;entryDx=0;entryDy=0;endArrow=none;endFill=0;" parent="1" source="n9BHDYFtltxvlKAYg7nu-215" target="n9BHDYFtltxvlKAYg7nu-10" edge="1"><mxGeometry relative="1" as="geometry"/></mxCell><mxCell id="n9BHDYFtltxvlKAYg7nu-215" value="tem" style="shape=rhombus;perimeter=rhombusPerimeter;whiteSpace=wrap;html=1;align=center;" parent="1" vertex="1"><mxGeometry x="70" y="950" width="120" height="60" as="geometry"/></mxCell><mxCell id="n9BHDYFtltxvlKAYg7nu-218" value="dataPlantacao" style="ellipse;whiteSpace=wrap;html=1;align=center;" parent="1" vertex="1"><mxGeometry x="-195" y="965" width="100" height="40" as="geometry"/></mxCell><mxCell id="n9BHDYFtltxvlKAYg7nu-284" value="1" style="text;html=1;strokeColor=none;fillColor=none;align=center;verticalAlign=middle;whiteSpace=wrap;rounded=0;" parent="1" vertex="1"><mxGeometry x="1085" y="490" width="20" height="15" as="geometry"/></mxCell><mxCell id="n9BHDYFtltxvlKAYg7nu-290" value="N" style="text;html=1;strokeColor=none;fillColor=none;align=center;verticalAlign=middle;whiteSpace=wrap;rounded=0;" parent="1" vertex="1"><mxGeometry x="1000" y="790" width="30" height="30" as="geometry"/></mxCell><mxCell id="n9BHDYFtltxvlKAYg7nu-298" value="1" style="text;html=1;strokeColor=none;fillColor=none;align=center;verticalAlign=middle;whiteSpace=wrap;rounded=0;" parent="1" vertex="1"><mxGeometry x="250" y="200" width="30" height="30" as="geometry"/></mxCell><mxCell id="OKjxkkXSC3GkU-OfnmQm-1" value="codigo&lt;br&gt;interno" style="ellipse;whiteSpace=wrap;html=1;align=center;" parent="1" vertex="1"><mxGeometry x="1191" y="340" width="100" height="40" as="geometry"/></mxCell><mxCell id="sahUQvl5ozFRLX7pKj-Z-73" style="rounded=0;orthogonalLoop=1;jettySize=auto;html=1;exitX=0;exitY=1;exitDx=0;exitDy=0;entryX=0.818;entryY=0.005;entryDx=0;entryDy=0;entryPerimeter=0;endArrow=none;endFill=0;" parent="1" source="OKjxkkXSC3GkU-OfnmQm-2" target="n9BHDYFtltxvlKAYg7nu-54" edge="1"><mxGeometry relative="1" as="geometry"/></mxCell><mxCell id="OKjxkkXSC3GkU-OfnmQm-2" value="nome" style="ellipse;whiteSpace=wrap;html=1;align=center;" parent="1" vertex="1"><mxGeometry x="1215" y="390" width="100" height="40" as="geometry"/></mxCell><mxCell id="OKjxkkXSC3GkU-OfnmQm-48" style="rounded=0;orthogonalLoop=1;jettySize=auto;html=1;exitX=1;exitY=0.5;exitDx=0;exitDy=0;endArrow=none;endFill=0;entryX=0.25;entryY=0;entryDx=0;entryDy=0;" parent="1" source="OKjxkkXSC3GkU-OfnmQm-3" target="n9BHDYFtltxvlKAYg7nu-54" edge="1"><mxGeometry relative="1" as="geometry"><mxPoint x="1060" y="520" as="targetPoint"/></mxGeometry></mxCell><mxCell id="OKjxkkXSC3GkU-OfnmQm-3" value="nr fiscal" style="ellipse;whiteSpace=wrap;html=1;align=center;" parent="1" vertex="1"><mxGeometry x="955" y="385" width="100" height="40" as="geometry"/></mxCell><mxCell id="OKjxkkXSC3GkU-OfnmQm-51" style="rounded=0;orthogonalLoop=1;jettySize=auto;html=1;exitX=1;exitY=0.5;exitDx=0;exitDy=0;entryX=0;entryY=0.25;entryDx=0;entryDy=0;endArrow=none;endFill=0;" parent="1" source="OKjxkkXSC3GkU-OfnmQm-4" target="n9BHDYFtltxvlKAYg7nu-54" edge="1"><mxGeometry relative="1" as="geometry"/></mxCell><mxCell id="OKjxkkXSC3GkU-OfnmQm-4" value="email cliente" style="ellipse;whiteSpace=wrap;html=1;align=center;" parent="1" vertex="1"><mxGeometry x="882" y="435" width="100" height="40" as="geometry"/></mxCell><mxCell id="sahUQvl5ozFRLX7pKj-Z-43" style="edgeStyle=orthogonalEdgeStyle;rounded=0;orthogonalLoop=1;jettySize=auto;html=1;exitX=1;exitY=0.25;exitDx=0;exitDy=0;endArrow=none;endFill=0;" parent="1" source="OKjxkkXSC3GkU-OfnmQm-6" edge="1"><mxGeometry relative="1" as="geometry"><mxPoint x="1860" y="1090" as="targetPoint"/><Array as="points"><mxPoint x="1860" y="530"/><mxPoint x="1860" y="1090"/></Array></mxGeometry></mxCell><mxCell id="RbGkJxQxw0nZ-CFQPRX_-111" style="edgeStyle=none;rounded=0;orthogonalLoop=1;jettySize=auto;html=1;exitX=1;exitY=1;exitDx=0;exitDy=0;endArrow=none;endFill=0;" parent="1" source="OKjxkkXSC3GkU-OfnmQm-6" target="RbGkJxQxw0nZ-CFQPRX_-110" edge="1"><mxGeometry relative="1" as="geometry"/></mxCell><mxCell id="OKjxkkXSC3GkU-OfnmQm-6" value="Morada" style="whiteSpace=wrap;html=1;align=center;" parent="1" vertex="1"><mxGeometry x="1600" y="520" width="100" height="40" as="geometry"/></mxCell><mxCell id="OKjxkkXSC3GkU-OfnmQm-18" style="rounded=0;orthogonalLoop=1;jettySize=auto;html=1;exitX=0;exitY=1;exitDx=0;exitDy=0;entryX=0.5;entryY=0;entryDx=0;entryDy=0;endArrow=none;endFill=0;" parent="1" source="OKjxkkXSC3GkU-OfnmQm-7" target="OKjxkkXSC3GkU-OfnmQm-6" edge="1"><mxGeometry relative="1" as="geometry"/></mxCell><mxCell id="OKjxkkXSC3GkU-OfnmQm-7" value="codigo&lt;br&gt;postal" style="ellipse;whiteSpace=wrap;html=1;align=center;" parent="1" vertex="1"><mxGeometry x="1654" y="420" width="100" height="40" as="geometry"/></mxCell><mxCell id="OKjxkkXSC3GkU-OfnmQm-17" style="rounded=0;orthogonalLoop=1;jettySize=auto;html=1;exitX=0;exitY=0.5;exitDx=0;exitDy=0;entryX=0.75;entryY=0;entryDx=0;entryDy=0;endArrow=none;endFill=0;" parent="1" source="OKjxkkXSC3GkU-OfnmQm-8" target="OKjxkkXSC3GkU-OfnmQm-6" edge="1"><mxGeometry relative="1" as="geometry"/></mxCell><mxCell id="OKjxkkXSC3GkU-OfnmQm-8" value="rua" style="ellipse;whiteSpace=wrap;html=1;align=center;" parent="1" vertex="1"><mxGeometry x="1720" y="460" width="100" height="40" as="geometry"/></mxCell><mxCell id="OKjxkkXSC3GkU-OfnmQm-13" style="rounded=0;orthogonalLoop=1;jettySize=auto;html=1;exitX=1;exitY=0;exitDx=0;exitDy=0;entryX=0;entryY=1;entryDx=0;entryDy=0;endArrow=none;endFill=0;" parent="1" source="OKjxkkXSC3GkU-OfnmQm-9" target="OKjxkkXSC3GkU-OfnmQm-6" edge="1"><mxGeometry relative="1" as="geometry"/></mxCell><mxCell id="OKjxkkXSC3GkU-OfnmQm-9" value="localidade" style="ellipse;whiteSpace=wrap;html=1;align=center;" parent="1" vertex="1"><mxGeometry x="1487" y="570" width="100" height="40" as="geometry"/></mxCell><mxCell id="OKjxkkXSC3GkU-OfnmQm-16" style="rounded=0;orthogonalLoop=1;jettySize=auto;html=1;entryX=1;entryY=0.75;entryDx=0;entryDy=0;endArrow=none;endFill=0;" parent="1" source="OKjxkkXSC3GkU-OfnmQm-10" target="OKjxkkXSC3GkU-OfnmQm-6" edge="1"><mxGeometry relative="1" as="geometry"/></mxCell><mxCell id="OKjxkkXSC3GkU-OfnmQm-10" value="pais" style="ellipse;whiteSpace=wrap;html=1;align=center;" parent="1" vertex="1"><mxGeometry x="1754" y="535" width="100" height="40" as="geometry"/></mxCell><mxCell id="OKjxkkXSC3GkU-OfnmQm-14" style="rounded=0;orthogonalLoop=1;jettySize=auto;html=1;exitX=0.5;exitY=0;exitDx=0;exitDy=0;entryX=0.25;entryY=1;entryDx=0;entryDy=0;endArrow=none;endFill=0;" parent="1" source="OKjxkkXSC3GkU-OfnmQm-11" target="OKjxkkXSC3GkU-OfnmQm-6" edge="1"><mxGeometry relative="1" as="geometry"/></mxCell><mxCell id="OKjxkkXSC3GkU-OfnmQm-11" value="nr edificio" style="ellipse;whiteSpace=wrap;html=1;align=center;" parent="1" vertex="1"><mxGeometry x="1535" y="610" width="100" height="40" as="geometry"/></mxCell><mxCell id="OKjxkkXSC3GkU-OfnmQm-15" style="rounded=0;orthogonalLoop=1;jettySize=auto;html=1;exitX=0.5;exitY=0;exitDx=0;exitDy=0;entryX=0.5;entryY=1;entryDx=0;entryDy=0;endArrow=none;endFill=0;" parent="1" source="OKjxkkXSC3GkU-OfnmQm-12" target="OKjxkkXSC3GkU-OfnmQm-6" edge="1"><mxGeometry relative="1" as="geometry"/></mxCell><mxCell id="OKjxkkXSC3GkU-OfnmQm-12" value="andar" style="ellipse;whiteSpace=wrap;html=1;align=center;" parent="1" vertex="1"><mxGeometry x="1635" y="595" width="100" height="40" as="geometry"/></mxCell><mxCell id="OKjxkkXSC3GkU-OfnmQm-25" style="edgeStyle=orthogonalEdgeStyle;rounded=0;orthogonalLoop=1;jettySize=auto;html=1;exitX=1;exitY=0.5;exitDx=0;exitDy=0;entryX=0.25;entryY=0;entryDx=0;entryDy=0;endArrow=none;endFill=0;" parent="1" source="OKjxkkXSC3GkU-OfnmQm-20" target="OKjxkkXSC3GkU-OfnmQm-6" edge="1"><mxGeometry relative="1" as="geometry"/></mxCell><mxCell id="OKjxkkXSC3GkU-OfnmQm-20" value="morada&lt;br&gt;correspondencia" style="shape=rhombus;perimeter=rhombusPerimeter;whiteSpace=wrap;html=1;align=center;" parent="1" vertex="1"><mxGeometry x="1415" y="440" width="130" height="60" as="geometry"/></mxCell><mxCell id="OKjxkkXSC3GkU-OfnmQm-24" style="edgeStyle=orthogonalEdgeStyle;rounded=0;orthogonalLoop=1;jettySize=auto;html=1;exitX=1;exitY=0.5;exitDx=0;exitDy=0;entryX=0;entryY=0.5;entryDx=0;entryDy=0;endArrow=none;endFill=0;" parent="1" source="OKjxkkXSC3GkU-OfnmQm-21" target="OKjxkkXSC3GkU-OfnmQm-6" edge="1"><mxGeometry relative="1" as="geometry"/></mxCell><mxCell id="OKjxkkXSC3GkU-OfnmQm-21" value="morada&lt;br&gt;entrega" style="shape=rhombus;perimeter=rhombusPerimeter;whiteSpace=wrap;html=1;align=center;" parent="1" vertex="1"><mxGeometry x="1370" y="510" width="120" height="60" as="geometry"/></mxCell><mxCell id="OKjxkkXSC3GkU-OfnmQm-50" style="rounded=0;orthogonalLoop=1;jettySize=auto;html=1;exitX=0.7;exitY=0.125;exitDx=0;exitDy=0;entryX=0;entryY=0.75;entryDx=0;entryDy=0;endArrow=none;endFill=0;exitPerimeter=0;" parent="1" source="OKjxkkXSC3GkU-OfnmQm-26" target="n9BHDYFtltxvlKAYg7nu-54" edge="1"><mxGeometry relative="1" as="geometry"/></mxCell><mxCell id="OKjxkkXSC3GkU-OfnmQm-26" value="plafond" style="ellipse;whiteSpace=wrap;html=1;align=center;" parent="1" vertex="1"><mxGeometry x="880" y="505" width="100" height="40" as="geometry"/></mxCell><mxCell id="OKjxkkXSC3GkU-OfnmQm-27" value="1" style="text;html=1;align=center;verticalAlign=middle;resizable=0;points=[];autosize=1;strokeColor=none;fillColor=none;" parent="1" vertex="1"><mxGeometry x="1600" y="490" width="30" height="30" as="geometry"/></mxCell><mxCell id="OKjxkkXSC3GkU-OfnmQm-28" value="1" style="text;html=1;align=center;verticalAlign=middle;resizable=0;points=[];autosize=1;strokeColor=none;fillColor=none;" parent="1" vertex="1"><mxGeometry x="1570" y="515" width="30" height="30" as="geometry"/></mxCell><mxCell id="OKjxkkXSC3GkU-OfnmQm-29" value="1" style="text;html=1;align=center;verticalAlign=middle;resizable=0;points=[];autosize=1;strokeColor=none;fillColor=none;" parent="1" vertex="1"><mxGeometry x="1170" y="475" width="30" height="30" as="geometry"/></mxCell><mxCell id="OKjxkkXSC3GkU-OfnmQm-31" value="1" style="text;html=1;align=center;verticalAlign=middle;resizable=0;points=[];autosize=1;strokeColor=none;fillColor=none;" parent="1" vertex="1"><mxGeometry x="1170" y="450" width="30" height="30" as="geometry"/></mxCell><mxCell id="OKjxkkXSC3GkU-OfnmQm-41" style="rounded=0;orthogonalLoop=1;jettySize=auto;html=1;exitX=1;exitY=0.25;exitDx=0;exitDy=0;entryX=0;entryY=1;entryDx=0;entryDy=0;endArrow=none;endFill=0;" parent="1" source="sahUQvl5ozFRLX7pKj-Z-7" target="OKjxkkXSC3GkU-OfnmQm-34" edge="1"><mxGeometry relative="1" as="geometry"><mxPoint x="1435" y="695" as="sourcePoint"/></mxGeometry></mxCell><mxCell id="OKjxkkXSC3GkU-OfnmQm-34" value="data ocorrencia" style="ellipse;whiteSpace=wrap;html=1;align=center;" parent="1" vertex="1"><mxGeometry x="1654" y="760" width="100" height="40" as="geometry"/></mxCell><mxCell id="sahUQvl5ozFRLX7pKj-Z-1" style="edgeStyle=orthogonalEdgeStyle;rounded=0;orthogonalLoop=1;jettySize=auto;html=1;exitX=0.5;exitY=0;exitDx=0;exitDy=0;entryX=0.75;entryY=1;entryDx=0;entryDy=0;endArrow=none;endFill=0;" parent="1" source="sahUQvl5ozFRLX7pKj-Z-3" target="n9BHDYFtltxvlKAYg7nu-54" edge="1"><mxGeometry relative="1" as="geometry"><mxPoint x="1730" y="905" as="targetPoint"/><Array as="points"><mxPoint x="1480" y="610"/><mxPoint x="1155" y="610"/></Array></mxGeometry></mxCell><mxCell id="sahUQvl5ozFRLX7pKj-Z-2" style="edgeStyle=orthogonalEdgeStyle;rounded=0;orthogonalLoop=1;jettySize=auto;html=1;exitX=0.5;exitY=1;exitDx=0;exitDy=0;endArrow=none;endFill=0;" parent="1" source="sahUQvl5ozFRLX7pKj-Z-3" target="sahUQvl5ozFRLX7pKj-Z-7" edge="1"><mxGeometry relative="1" as="geometry"><Array as="points"><mxPoint x="1480" y="770"/><mxPoint x="1585" y="770"/></Array></mxGeometry></mxCell><mxCell id="sahUQvl5ozFRLX7pKj-Z-3" value="Tem" style="shape=rhombus;perimeter=rhombusPerimeter;whiteSpace=wrap;html=1;align=center;" parent="1" vertex="1"><mxGeometry x="1420" y="680" width="120" height="60" as="geometry"/></mxCell><mxCell id="sahUQvl5ozFRLX7pKj-Z-4" style="edgeStyle=orthogonalEdgeStyle;rounded=0;orthogonalLoop=1;jettySize=auto;html=1;exitX=0;exitY=0.5;exitDx=0;exitDy=0;entryX=1;entryY=0.5;entryDx=0;entryDy=0;endArrow=none;endFill=0;" parent="1" source="sahUQvl5ozFRLX7pKj-Z-5" target="sahUQvl5ozFRLX7pKj-Z-21" edge="1"><mxGeometry relative="1" as="geometry"/></mxCell><mxCell id="sahUQvl5ozFRLX7pKj-Z-5" value="Nível" style="whiteSpace=wrap;html=1;align=center;fontFamily=Helvetica;fontSize=12;fontColor=default;strokeColor=default;fillColor=default;" parent="1" vertex="1"><mxGeometry x="1310" y="680" width="100" height="40" as="geometry"/></mxCell><mxCell id="sahUQvl5ozFRLX7pKj-Z-76" style="edgeStyle=orthogonalEdgeStyle;rounded=0;orthogonalLoop=1;jettySize=auto;html=1;exitX=1;exitY=0.75;exitDx=0;exitDy=0;endArrow=none;endFill=0;" parent="1" source="sahUQvl5ozFRLX7pKj-Z-7" edge="1"><mxGeometry relative="1" as="geometry"><mxPoint x="1820" y="1270" as="targetPoint"/></mxGeometry></mxCell><mxCell id="sahUQvl5ozFRLX7pKj-Z-7" value="Incidente" style="whiteSpace=wrap;html=1;align=center;" parent="1" vertex="1"><mxGeometry x="1535" y="815" width="100" height="40" as="geometry"/></mxCell><mxCell id="sahUQvl5ozFRLX7pKj-Z-8" style="edgeStyle=orthogonalEdgeStyle;rounded=0;orthogonalLoop=1;jettySize=auto;html=1;entryX=0;entryY=0.5;entryDx=0;entryDy=0;endArrow=none;endFill=0;exitX=0.5;exitY=1;exitDx=0;exitDy=0;" parent="1" source="n9BHDYFtltxvlKAYg7nu-54" target="sahUQvl5ozFRLX7pKj-Z-21" edge="1"><mxGeometry relative="1" as="geometry"><mxPoint x="1130" y="490" as="sourcePoint"/><Array as="points"><mxPoint x="1130" y="700"/></Array></mxGeometry></mxCell><mxCell id="sahUQvl5ozFRLX7pKj-Z-9" style="edgeStyle=orthogonalEdgeStyle;rounded=0;orthogonalLoop=1;jettySize=auto;html=1;endArrow=none;endFill=0;exitX=0.096;exitY=1.024;exitDx=0;exitDy=0;entryX=0.5;entryY=0;entryDx=0;entryDy=0;exitPerimeter=0;" parent="1" source="n9BHDYFtltxvlKAYg7nu-54" target="sahUQvl5ozFRLX7pKj-Z-23" edge="1"><mxGeometry relative="1" as="geometry"><mxPoint x="1240" y="720" as="sourcePoint"/><mxPoint x="1120" y="720" as="targetPoint"/><Array as="points"><mxPoint x="1090" y="535"/><mxPoint x="1030" y="535"/></Array></mxGeometry></mxCell><mxCell id="sahUQvl5ozFRLX7pKj-Z-11" style="edgeStyle=orthogonalEdgeStyle;rounded=0;orthogonalLoop=1;jettySize=auto;html=1;exitX=1;exitY=0.5;exitDx=0;exitDy=0;entryX=0;entryY=0.5;entryDx=0;entryDy=0;endArrow=none;endFill=0;" parent="1" source="sahUQvl5ozFRLX7pKj-Z-12" target="sahUQvl5ozFRLX7pKj-Z-30" edge="1"><mxGeometry relative="1" as="geometry"/></mxCell><mxCell id="sahUQvl5ozFRLX7pKj-Z-35" style="rounded=0;orthogonalLoop=1;jettySize=auto;html=1;exitX=0;exitY=0.75;exitDx=0;exitDy=0;entryX=1;entryY=0.5;entryDx=0;entryDy=0;endArrow=none;endFill=0;" parent="1" source="sahUQvl5ozFRLX7pKj-Z-41" target="n9BHDYFtltxvlKAYg7nu-73" edge="1"><mxGeometry relative="1" as="geometry"/></mxCell><mxCell id="sahUQvl5ozFRLX7pKj-Z-12" value="Pedido" style="whiteSpace=wrap;html=1;align=center;" parent="1" vertex="1"><mxGeometry x="980" y="815" width="100" height="40" as="geometry"/></mxCell><mxCell id="agGOUGzYTLRCkL8UZT49-113" style="rounded=0;orthogonalLoop=1;jettySize=auto;html=1;exitX=0;exitY=1;exitDx=0;exitDy=0;entryX=0.695;entryY=0.046;entryDx=0;entryDy=0;endArrow=none;endFill=0;entryPerimeter=0;" parent="1" source="sahUQvl5ozFRLX7pKj-Z-21" target="agGOUGzYTLRCkL8UZT49-112" edge="1"><mxGeometry relative="1" as="geometry"/></mxCell><mxCell id="sahUQvl5ozFRLX7pKj-Z-21" value="Tem" style="shape=rhombus;perimeter=rhombusPerimeter;whiteSpace=wrap;html=1;align=center;" parent="1" vertex="1"><mxGeometry x="1160" y="670" width="120" height="60" as="geometry"/></mxCell><mxCell id="sahUQvl5ozFRLX7pKj-Z-22" style="edgeStyle=orthogonalEdgeStyle;rounded=0;orthogonalLoop=1;jettySize=auto;html=1;exitX=0.5;exitY=1;exitDx=0;exitDy=0;endArrow=none;endFill=0;" parent="1" source="sahUQvl5ozFRLX7pKj-Z-23" target="sahUQvl5ozFRLX7pKj-Z-12" edge="1"><mxGeometry relative="1" as="geometry"/></mxCell><mxCell id="sahUQvl5ozFRLX7pKj-Z-23" value="produz" style="shape=rhombus;perimeter=rhombusPerimeter;whiteSpace=wrap;html=1;align=center;" parent="1" vertex="1"><mxGeometry x="970" y="580" width="120" height="60" as="geometry"/></mxCell><mxCell id="sahUQvl5ozFRLX7pKj-Z-29" style="edgeStyle=orthogonalEdgeStyle;rounded=0;orthogonalLoop=1;jettySize=auto;html=1;exitX=1;exitY=0.5;exitDx=0;exitDy=0;entryX=0;entryY=0.5;entryDx=0;entryDy=0;endArrow=none;endFill=0;" parent="1" source="sahUQvl5ozFRLX7pKj-Z-30" target="sahUQvl5ozFRLX7pKj-Z-7" edge="1"><mxGeometry relative="1" as="geometry"/></mxCell><mxCell id="sahUQvl5ozFRLX7pKj-Z-30" value="Tem" style="shape=rhombus;perimeter=rhombusPerimeter;whiteSpace=wrap;html=1;align=center;" parent="1" vertex="1"><mxGeometry x="1160" y="805" width="120" height="60" as="geometry"/></mxCell><mxCell id="sahUQvl5ozFRLX7pKj-Z-38" style="rounded=0;orthogonalLoop=1;jettySize=auto;html=1;exitX=0.5;exitY=1;exitDx=0;exitDy=0;entryX=0.124;entryY=-0.032;entryDx=0;entryDy=0;endArrow=none;endFill=0;entryPerimeter=0;" parent="1" source="sahUQvl5ozFRLX7pKj-Z-37" target="sahUQvl5ozFRLX7pKj-Z-41" edge="1"><mxGeometry relative="1" as="geometry"/></mxCell><mxCell id="sahUQvl5ozFRLX7pKj-Z-37" value="valor total" style="ellipse;whiteSpace=wrap;html=1;align=center;" parent="1" vertex="1"><mxGeometry x="880" y="665" width="100" height="40" as="geometry"/></mxCell><mxCell id="sahUQvl5ozFRLX7pKj-Z-54" style="rounded=0;orthogonalLoop=1;jettySize=auto;html=1;exitX=0;exitY=0.5;exitDx=0;exitDy=0;entryX=1;entryY=1;entryDx=0;entryDy=0;endArrow=none;endFill=0;" parent="1" source="sahUQvl5ozFRLX7pKj-Z-41" target="sahUQvl5ozFRLX7pKj-Z-53" edge="1"><mxGeometry relative="1" as="geometry"/></mxCell><mxCell id="sahUQvl5ozFRLX7pKj-Z-41" value="Pedido" style="whiteSpace=wrap;html=1;align=center;" parent="1" vertex="1"><mxGeometry x="980" y="815" width="100" height="40" as="geometry"/></mxCell><mxCell id="sahUQvl5ozFRLX7pKj-Z-45" value="" style="endArrow=none;html=1;rounded=0;" parent="1" edge="1"><mxGeometry width="50" height="50" relative="1" as="geometry"><mxPoint x="1241" y="1090" as="sourcePoint"/><mxPoint x="1860" y="1090" as="targetPoint"/></mxGeometry></mxCell><mxCell id="sahUQvl5ozFRLX7pKj-Z-49" style="edgeStyle=orthogonalEdgeStyle;rounded=0;orthogonalLoop=1;jettySize=auto;html=1;exitX=0;exitY=0.5;exitDx=0;exitDy=0;entryX=1;entryY=0.5;entryDx=0;entryDy=0;endArrow=none;endFill=0;" parent="1" source="sahUQvl5ozFRLX7pKj-Z-48" target="sahUQvl5ozFRLX7pKj-Z-61" edge="1"><mxGeometry relative="1" as="geometry"/></mxCell><mxCell id="sahUQvl5ozFRLX7pKj-Z-48" value="Tem" style="shape=rhombus;perimeter=rhombusPerimeter;whiteSpace=wrap;html=1;align=center;" parent="1" vertex="1"><mxGeometry x="1120" y="1060" width="120" height="60" as="geometry"/></mxCell><mxCell id="sahUQvl5ozFRLX7pKj-Z-50" value="1" style="text;html=1;align=center;verticalAlign=middle;resizable=0;points=[];autosize=1;strokeColor=none;fillColor=none;" parent="1" vertex="1"><mxGeometry x="1035" y="850" width="30" height="30" as="geometry"/></mxCell><mxCell id="sahUQvl5ozFRLX7pKj-Z-52" value="1" style="text;html=1;align=center;verticalAlign=middle;resizable=0;points=[];autosize=1;strokeColor=none;fillColor=none;" parent="1" vertex="1"><mxGeometry x="1700" y="510" width="30" height="30" as="geometry"/></mxCell><mxCell id="sahUQvl5ozFRLX7pKj-Z-53" value="data vencimento" style="ellipse;whiteSpace=wrap;html=1;align=center;" parent="1" vertex="1"><mxGeometry x="800" y="710" width="100" height="40" as="geometry"/></mxCell><mxCell id="sahUQvl5ozFRLX7pKj-Z-57" style="rounded=0;orthogonalLoop=1;jettySize=auto;html=1;exitX=0;exitY=0.5;exitDx=0;exitDy=0;entryX=1;entryY=0;entryDx=0;entryDy=0;endArrow=none;endFill=0;" parent="1" source="sahUQvl5ozFRLX7pKj-Z-55" target="sahUQvl5ozFRLX7pKj-Z-56" edge="1"><mxGeometry relative="1" as="geometry"/></mxCell><mxCell id="sahUQvl5ozFRLX7pKj-Z-78" style="edgeStyle=orthogonalEdgeStyle;rounded=0;orthogonalLoop=1;jettySize=auto;html=1;exitX=0.25;exitY=1;exitDx=0;exitDy=0;entryX=0;entryY=0.5;entryDx=0;entryDy=0;endArrow=none;endFill=0;" parent="1" source="sahUQvl5ozFRLX7pKj-Z-55" target="sahUQvl5ozFRLX7pKj-Z-77" edge="1"><mxGeometry relative="1" as="geometry"/></mxCell><mxCell id="sahUQvl5ozFRLX7pKj-Z-55" value="Pagamento" style="whiteSpace=wrap;html=1;align=center;" parent="1" vertex="1"><mxGeometry x="790" y="935" width="100" height="40" as="geometry"/></mxCell><mxCell id="sahUQvl5ozFRLX7pKj-Z-56" value="data pagamento" style="ellipse;whiteSpace=wrap;html=1;align=center;" parent="1" vertex="1"><mxGeometry x="667" y="975" width="100" height="40" as="geometry"/></mxCell><mxCell id="sahUQvl5ozFRLX7pKj-Z-60" style="edgeStyle=orthogonalEdgeStyle;rounded=0;orthogonalLoop=1;jettySize=auto;html=1;exitX=0.5;exitY=1;exitDx=0;exitDy=0;entryX=0.5;entryY=0;entryDx=0;entryDy=0;endArrow=none;endFill=0;" parent="1" source="sahUQvl5ozFRLX7pKj-Z-61" target="sahUQvl5ozFRLX7pKj-Z-62" edge="1"><mxGeometry relative="1" as="geometry"/></mxCell><mxCell id="sahUQvl5ozFRLX7pKj-Z-61" value="Entrega" style="whiteSpace=wrap;html=1;align=center;" parent="1" vertex="1"><mxGeometry x="955" y="1070" width="100" height="40" as="geometry"/></mxCell><mxCell id="sahUQvl5ozFRLX7pKj-Z-62" value="data entrega" style="ellipse;whiteSpace=wrap;html=1;align=center;" parent="1" vertex="1"><mxGeometry x="955" y="1154" width="100" height="40" as="geometry"/></mxCell><mxCell id="sahUQvl5ozFRLX7pKj-Z-64" style="rounded=0;orthogonalLoop=1;jettySize=auto;html=1;exitX=1;exitY=0.5;exitDx=0;exitDy=0;entryX=0;entryY=0;entryDx=0;entryDy=0;endArrow=none;endFill=0;" parent="1" source="sahUQvl5ozFRLX7pKj-Z-63" target="n9BHDYFtltxvlKAYg7nu-71" edge="1"><mxGeometry relative="1" as="geometry"/></mxCell><mxCell id="sahUQvl5ozFRLX7pKj-Z-65" style="edgeStyle=orthogonalEdgeStyle;rounded=0;orthogonalLoop=1;jettySize=auto;html=1;exitX=0;exitY=0.5;exitDx=0;exitDy=0;entryX=1;entryY=0.5;entryDx=0;entryDy=0;endArrow=none;endFill=0;" parent="1" source="sahUQvl5ozFRLX7pKj-Z-63" target="sahUQvl5ozFRLX7pKj-Z-55" edge="1"><mxGeometry relative="1" as="geometry"/></mxCell><mxCell id="sahUQvl5ozFRLX7pKj-Z-66" style="edgeStyle=orthogonalEdgeStyle;rounded=0;orthogonalLoop=1;jettySize=auto;html=1;exitX=0.5;exitY=1;exitDx=0;exitDy=0;entryX=0.5;entryY=0;entryDx=0;entryDy=0;endArrow=none;endFill=0;" parent="1" source="sahUQvl5ozFRLX7pKj-Z-63" target="sahUQvl5ozFRLX7pKj-Z-61" edge="1"><mxGeometry relative="1" as="geometry"/></mxCell><mxCell id="sahUQvl5ozFRLX7pKj-Z-67" style="edgeStyle=orthogonalEdgeStyle;rounded=0;orthogonalLoop=1;jettySize=auto;html=1;exitX=0.5;exitY=0;exitDx=0;exitDy=0;entryX=0.25;entryY=1;entryDx=0;entryDy=0;endArrow=none;endFill=0;" parent="1" source="sahUQvl5ozFRLX7pKj-Z-63" target="sahUQvl5ozFRLX7pKj-Z-41" edge="1"><mxGeometry relative="1" as="geometry"/></mxCell><mxCell id="sahUQvl5ozFRLX7pKj-Z-63" value="tem" style="shape=rhombus;perimeter=rhombusPerimeter;whiteSpace=wrap;html=1;align=center;" parent="1" vertex="1"><mxGeometry x="945" y="925" width="120" height="60" as="geometry"/></mxCell><mxCell id="sahUQvl5ozFRLX7pKj-Z-68" value="1" style="text;html=1;align=center;verticalAlign=middle;resizable=0;points=[];autosize=1;strokeColor=none;fillColor=none;" parent="1" vertex="1"><mxGeometry x="890" y="930" width="30" height="30" as="geometry"/></mxCell><mxCell id="sahUQvl5ozFRLX7pKj-Z-69" value="1" style="text;html=1;align=center;verticalAlign=middle;resizable=0;points=[];autosize=1;strokeColor=none;fillColor=none;" parent="1" vertex="1"><mxGeometry x="1010" y="1045" width="30" height="30" as="geometry"/></mxCell><mxCell id="sahUQvl5ozFRLX7pKj-Z-71" value="1" style="text;html=1;align=center;verticalAlign=middle;resizable=0;points=[];autosize=1;strokeColor=none;fillColor=none;" parent="1" vertex="1"><mxGeometry x="980" y="855" width="30" height="30" as="geometry"/></mxCell><mxCell id="sahUQvl5ozFRLX7pKj-Z-79" style="edgeStyle=orthogonalEdgeStyle;rounded=0;orthogonalLoop=1;jettySize=auto;html=1;exitX=1;exitY=0.5;exitDx=0;exitDy=0;endArrow=none;endFill=0;" parent="1" source="sahUQvl5ozFRLX7pKj-Z-77" edge="1"><mxGeometry relative="1" as="geometry"><mxPoint x="1820" y="1270" as="targetPoint"/></mxGeometry></mxCell><mxCell id="sahUQvl5ozFRLX7pKj-Z-77" value="tem" style="shape=rhombus;perimeter=rhombusPerimeter;whiteSpace=wrap;html=1;align=center;" parent="1" vertex="1"><mxGeometry x="1380" y="1239" width="120" height="60" as="geometry"/></mxCell><mxCell id="sahUQvl5ozFRLX7pKj-Z-80" value="1" style="text;html=1;align=center;verticalAlign=middle;resizable=0;points=[];autosize=1;strokeColor=none;fillColor=none;" parent="1" vertex="1"><mxGeometry x="1630" y="835" width="30" height="30" as="geometry"/></mxCell><mxCell id="sahUQvl5ozFRLX7pKj-Z-81" value="1" style="text;html=1;align=center;verticalAlign=middle;resizable=0;points=[];autosize=1;strokeColor=none;fillColor=none;" parent="1" vertex="1"><mxGeometry x="817" y="975" width="30" height="30" as="geometry"/></mxCell><mxCell id="2" value="N" style="text;html=1;align=center;verticalAlign=middle;resizable=0;points=[];autosize=1;strokeColor=none;fillColor=none;" parent="1" vertex="1"><mxGeometry x="1055" y="1090" width="30" height="30" as="geometry"/></mxCell><mxCell id="19" style="rounded=0;orthogonalLoop=1;jettySize=auto;html=1;entryX=0.5;entryY=1;entryDx=0;entryDy=0;endArrow=none;endFill=0;exitX=0;exitY=0;exitDx=0;exitDy=0;" parent="1" source="n9BHDYFtltxvlKAYg7nu-215" target="n9BHDYFtltxvlKAYg7nu-98" edge="1"><mxGeometry relative="1" as="geometry"><mxPoint x="70" y="950" as="sourcePoint"/></mxGeometry></mxCell><mxCell id="13" value="1" style="text;html=1;align=center;verticalAlign=middle;resizable=0;points=[];autosize=1;strokeColor=none;fillColor=none;" parent="1" vertex="1"><mxGeometry x="-20" y="922.5" width="30" height="30" as="geometry"/></mxCell><mxCell id="24" style="edgeStyle=orthogonalEdgeStyle;rounded=0;orthogonalLoop=1;jettySize=auto;html=1;exitX=0.5;exitY=0;exitDx=0;exitDy=0;entryX=0.5;entryY=1;entryDx=0;entryDy=0;endArrow=none;endFill=0;" parent="1" source="23" target="sahUQvl5ozFRLX7pKj-Z-5" edge="1"><mxGeometry relative="1" as="geometry"/></mxCell><mxCell id="23" value="designaçao" style="ellipse;whiteSpace=wrap;html=1;align=center;" parent="1" vertex="1"><mxGeometry x="1310" y="730" width="100" height="40" as="geometry"/></mxCell><mxCell id="35" style="edgeStyle=none;rounded=0;orthogonalLoop=1;jettySize=auto;html=1;exitX=1;exitY=0.5;exitDx=0;exitDy=0;entryX=0;entryY=1;entryDx=0;entryDy=0;endArrow=none;endFill=0;" parent="1" source="33" target="n9BHDYFtltxvlKAYg7nu-76" edge="1"><mxGeometry relative="1" as="geometry"/></mxCell><mxCell id="33" value="tem" style="shape=rhombus;perimeter=rhombusPerimeter;whiteSpace=wrap;html=1;align=center;" parent="1" vertex="1"><mxGeometry x="-20" y="175" width="120" height="60" as="geometry"/></mxCell><mxCell id="36" value="N" style="text;html=1;align=center;verticalAlign=middle;resizable=0;points=[];autosize=1;strokeColor=none;fillColor=none;" parent="1" vertex="1"><mxGeometry x="190" y="175" width="30" height="30" as="geometry"/></mxCell><mxCell id="37" value="1" style="text;html=1;align=center;verticalAlign=middle;resizable=0;points=[];autosize=1;strokeColor=none;fillColor=none;" parent="1" vertex="1"><mxGeometry x="-165" y="175" width="30" height="30" as="geometry"/></mxCell><mxCell id="59" value="1" style="text;html=1;align=center;verticalAlign=middle;resizable=0;points=[];autosize=1;strokeColor=none;fillColor=none;" parent="1" vertex="1"><mxGeometry x="-690" y="540" width="30" height="30" as="geometry"/></mxCell><mxCell id="agGOUGzYTLRCkL8UZT49-100" style="rounded=0;orthogonalLoop=1;jettySize=auto;html=1;exitX=1;exitY=0;exitDx=0;exitDy=0;entryX=0;entryY=0.5;entryDx=0;entryDy=0;endArrow=none;endFill=0;" parent="1" source="60" target="agGOUGzYTLRCkL8UZT49-99" edge="1"><mxGeometry relative="1" as="geometry"/></mxCell><mxCell id="60" value="Aplicaçao Fator Produçao" style="shape=rhombus;perimeter=rhombusPerimeter;whiteSpace=wrap;html=1;align=center;" parent="1" vertex="1"><mxGeometry x="-670" y="687.5" width="120" height="60" as="geometry"/></mxCell><mxCell id="84" style="edgeStyle=orthogonalEdgeStyle;rounded=0;orthogonalLoop=1;jettySize=auto;html=1;exitX=1;exitY=0.5;exitDx=0;exitDy=0;entryX=0;entryY=0.5;entryDx=0;entryDy=0;endArrow=none;endFill=0;" parent="1" source="61" target="n9BHDYFtltxvlKAYg7nu-39" edge="1"><mxGeometry relative="1" as="geometry"/></mxCell><mxCell id="61" value="plano de Rega" style="shape=rhombus;perimeter=rhombusPerimeter;whiteSpace=wrap;html=1;align=center;" parent="1" vertex="1"><mxGeometry x="-480" y="460" width="120" height="60" as="geometry"/></mxCell><mxCell id="73" value="1" style="text;html=1;align=center;verticalAlign=middle;resizable=0;points=[];autosize=1;strokeColor=none;fillColor=none;" parent="1" vertex="1"><mxGeometry x="-10" y="510" width="30" height="30" as="geometry"/></mxCell><mxCell id="V_U-QOIGQv_DgnKet09F-101" style="rounded=0;orthogonalLoop=1;jettySize=auto;html=1;exitX=0;exitY=0.5;exitDx=0;exitDy=0;entryX=1;entryY=0.5;entryDx=0;entryDy=0;endArrow=none;endFill=0;" parent="1" source="V_U-QOIGQv_DgnKet09F-99" target="V_U-QOIGQv_DgnKet09F-142" edge="1"><mxGeometry relative="1" as="geometry"/></mxCell><mxCell id="V_U-QOIGQv_DgnKet09F-99" value="Tipo de Rega" style="ellipse;whiteSpace=wrap;html=1;align=center;" parent="1" vertex="1"><mxGeometry x="-145" y="660" width="100" height="40" as="geometry"/></mxCell><mxCell id="V_U-QOIGQv_DgnKet09F-102" style="rounded=0;orthogonalLoop=1;jettySize=auto;html=1;exitX=0.3;exitY=1;exitDx=0;exitDy=0;entryX=0.655;entryY=0.149;entryDx=0;entryDy=0;endArrow=none;endFill=0;entryPerimeter=0;exitPerimeter=0;" parent="1" source="V_U-QOIGQv_DgnKet09F-100" target="61" edge="1"><mxGeometry relative="1" as="geometry"/></mxCell><mxCell id="V_U-QOIGQv_DgnKet09F-100" value="Tipo de Distribuiçao" style="ellipse;whiteSpace=wrap;html=1;align=center;" parent="1" vertex="1"><mxGeometry x="-390" y="320" width="100" height="40" as="geometry"/></mxCell><mxCell id="V_U-QOIGQv_DgnKet09F-108" value="ano" style="ellipse;whiteSpace=wrap;html=1;align=center;" parent="1" vertex="1"><mxGeometry x="-610" y="40" width="100" height="40" as="geometry"/></mxCell><mxCell id="V_U-QOIGQv_DgnKet09F-109" value="ano" style="ellipse;whiteSpace=wrap;html=1;align=center;" parent="1" vertex="1"><mxGeometry x="-410" y="185" width="100" height="40" as="geometry"/></mxCell><mxCell id="V_U-QOIGQv_DgnKet09F-113" value="designaçao" style="ellipse;whiteSpace=wrap;html=1;align=center;fontFamily=Helvetica;fontSize=12;fontColor=default;strokeColor=default;fillColor=default;" parent="1" vertex="1"><mxGeometry x="-30" y="1194" width="100" height="40" as="geometry"/></mxCell><mxCell id="V_U-QOIGQv_DgnKet09F-127" style="edgeStyle=orthogonalEdgeStyle;rounded=0;orthogonalLoop=1;jettySize=auto;html=1;exitX=1;exitY=0.5;exitDx=0;exitDy=0;entryX=0.5;entryY=0;entryDx=0;entryDy=0;endArrow=none;endFill=0;" parent="1" source="V_U-QOIGQv_DgnKet09F-125" target="n9BHDYFtltxvlKAYg7nu-76" edge="1"><mxGeometry relative="1" as="geometry"/></mxCell><mxCell id="V_U-QOIGQv_DgnKet09F-125" value="tem" style="shape=rhombus;perimeter=rhombusPerimeter;whiteSpace=wrap;html=1;align=center;" parent="1" vertex="1"><mxGeometry x="-30" y="30" width="120" height="60" as="geometry"/></mxCell><mxCell id="V_U-QOIGQv_DgnKet09F-128" value="1" style="text;html=1;align=center;verticalAlign=middle;resizable=0;points=[];autosize=1;strokeColor=none;fillColor=none;" parent="1" vertex="1"><mxGeometry x="-445" y="80" width="30" height="30" as="geometry"/></mxCell><mxCell id="V_U-QOIGQv_DgnKet09F-129" value="N" style="text;html=1;align=center;verticalAlign=middle;resizable=0;points=[];autosize=1;strokeColor=none;fillColor=none;" parent="1" vertex="1"><mxGeometry x="265" y="140" width="30" height="30" as="geometry"/></mxCell><mxCell id="V_U-QOIGQv_DgnKet09F-132" value="forma aplicação" style="ellipse;whiteSpace=wrap;html=1;align=center;" parent="1" vertex="1"><mxGeometry x="320" y="280" width="100" height="40" as="geometry"/></mxCell><mxCell id="V_U-QOIGQv_DgnKet09F-135" value="pode ser" style="shape=rhombus;perimeter=rhombusPerimeter;whiteSpace=wrap;html=1;align=center;" parent="1" vertex="1"><mxGeometry x="40" y="320" width="120" height="60" as="geometry"/></mxCell><mxCell id="V_U-QOIGQv_DgnKet09F-136" value="" style="edgeStyle=orthogonalEdgeStyle;rounded=0;orthogonalLoop=1;jettySize=auto;html=1;exitX=0.5;exitY=0;exitDx=0;exitDy=0;endArrow=none;endFill=0;entryX=0;entryY=0.5;entryDx=0;entryDy=0;" parent="1" source="n9BHDYFtltxvlKAYg7nu-39" target="V_U-QOIGQv_DgnKet09F-135" edge="1"><mxGeometry relative="1" as="geometry"><mxPoint x="257.5" y="204.7199999999998" as="targetPoint"/><mxPoint x="-5" y="505" as="sourcePoint"/></mxGeometry></mxCell><mxCell id="V_U-QOIGQv_DgnKet09F-138" value="" style="edgeStyle=orthogonalEdgeStyle;rounded=0;orthogonalLoop=1;jettySize=auto;html=1;exitX=0.25;exitY=1;exitDx=0;exitDy=0;endArrow=none;endFill=0;entryX=0.5;entryY=0;entryDx=0;entryDy=0;" parent="1" source="n9BHDYFtltxvlKAYg7nu-76" target="60" edge="1"><mxGeometry relative="1" as="geometry"><mxPoint x="-230" y="300" as="targetPoint"/><mxPoint x="245" y="205" as="sourcePoint"/><Array as="points"><mxPoint x="245" y="260"/><mxPoint x="-610" y="260"/></Array></mxGeometry></mxCell><mxCell id="V_U-QOIGQv_DgnKet09F-143" style="edgeStyle=orthogonalEdgeStyle;rounded=0;orthogonalLoop=1;jettySize=auto;html=1;exitX=0.5;exitY=0;exitDx=0;exitDy=0;entryX=0.5;entryY=1;entryDx=0;entryDy=0;endArrow=none;endFill=0;" parent="1" source="V_U-QOIGQv_DgnKet09F-142" target="n9BHDYFtltxvlKAYg7nu-39" edge="1"><mxGeometry relative="1" as="geometry"/></mxCell><mxCell id="V_U-QOIGQv_DgnKet09F-144" style="edgeStyle=orthogonalEdgeStyle;rounded=0;orthogonalLoop=1;jettySize=auto;html=1;exitX=0.5;exitY=1;exitDx=0;exitDy=0;endArrow=none;endFill=0;entryX=0;entryY=0.75;entryDx=0;entryDy=0;" parent="1" source="V_U-QOIGQv_DgnKet09F-142" target="n9BHDYFtltxvlKAYg7nu-9" edge="1"><mxGeometry relative="1" as="geometry"><mxPoint x="-260" y="800" as="targetPoint"/><Array as="points"><mxPoint x="-250" y="910"/><mxPoint x="-110" y="910"/></Array></mxGeometry></mxCell><mxCell id="V_U-QOIGQv_DgnKet09F-152" style="edgeStyle=orthogonalEdgeStyle;rounded=0;orthogonalLoop=1;jettySize=auto;html=1;exitX=0;exitY=0.5;exitDx=0;exitDy=0;entryX=0;entryY=0.75;entryDx=0;entryDy=0;endArrow=none;endFill=0;" parent="1" source="V_U-QOIGQv_DgnKet09F-142" target="n9BHDYFtltxvlKAYg7nu-10" edge="1"><mxGeometry relative="1" as="geometry"/></mxCell><mxCell id="V_U-QOIGQv_DgnKet09F-142" value="Aplicacao Rega" style="shape=rhombus;perimeter=rhombusPerimeter;whiteSpace=wrap;html=1;align=center;" parent="1" vertex="1"><mxGeometry x="-310" y="650" width="120" height="60" as="geometry"/></mxCell><mxCell id="V_U-QOIGQv_DgnKet09F-146" value="N" style="text;html=1;strokeColor=none;fillColor=none;align=center;verticalAlign=middle;whiteSpace=wrap;rounded=0;" parent="1" vertex="1"><mxGeometry x="-130" y="920" width="30" height="10" as="geometry"/></mxCell><mxCell id="V_U-QOIGQv_DgnKet09F-147" value="1" style="text;html=1;strokeColor=none;fillColor=none;align=center;verticalAlign=middle;whiteSpace=wrap;rounded=0;" parent="1" vertex="1"><mxGeometry x="-130" y="900" width="30" height="10" as="geometry"/></mxCell><mxCell id="V_U-QOIGQv_DgnKet09F-149" value="N" style="text;html=1;strokeColor=none;fillColor=none;align=center;verticalAlign=middle;whiteSpace=wrap;rounded=0;" parent="1" vertex="1"><mxGeometry x="-90" y="880" width="10" height="10" as="geometry"/></mxCell><mxCell id="V_U-QOIGQv_DgnKet09F-150" value="N" style="text;html=1;strokeColor=none;fillColor=none;align=center;verticalAlign=middle;whiteSpace=wrap;rounded=0;" parent="1" vertex="1"><mxGeometry x="-140" y="1100" width="10" height="10" as="geometry"/></mxCell><mxCell id="V_U-QOIGQv_DgnKet09F-151" value="1" style="text;html=1;strokeColor=none;fillColor=none;align=center;verticalAlign=middle;whiteSpace=wrap;rounded=0;" parent="1" vertex="1"><mxGeometry x="-140" y="1120" width="10" height="10" as="geometry"/></mxCell><mxCell id="V_U-QOIGQv_DgnKet09F-153" value="1" style="text;html=1;strokeColor=none;fillColor=none;align=center;verticalAlign=middle;whiteSpace=wrap;rounded=0;" parent="1" vertex="1"><mxGeometry x="-140" y="1140" width="10" height="10" as="geometry"/></mxCell><mxCell id="V_U-QOIGQv_DgnKet09F-158" style="rounded=0;orthogonalLoop=1;jettySize=auto;html=1;exitX=1;exitY=0.5;exitDx=0;exitDy=0;entryX=0;entryY=0.5;entryDx=0;entryDy=0;endArrow=none;endFill=0;" parent="1" source="n9BHDYFtltxvlKAYg7nu-83" target="43" edge="1"><mxGeometry relative="1" as="geometry"/></mxCell><mxCell id="n9BHDYFtltxvlKAYg7nu-83" value="dataInício" style="ellipse;whiteSpace=wrap;html=1;align=center;container=0;" parent="1" vertex="1"><mxGeometry x="-1080" y="750" width="100" height="40" as="geometry"/></mxCell><mxCell id="43" value="Restriçao" style="shape=rhombus;perimeter=rhombusPerimeter;whiteSpace=wrap;html=1;align=center;container=0;" parent="1" vertex="1"><mxGeometry x="-920" y="740" width="120" height="60" as="geometry"/></mxCell><mxCell id="V_U-QOIGQv_DgnKet09F-160" value="N" style="text;html=1;align=center;verticalAlign=middle;resizable=0;points=[];autosize=1;strokeColor=none;fillColor=none;" parent="1" vertex="1"><mxGeometry x="-740" y="540" width="30" height="30" as="geometry"/></mxCell><mxCell id="V_U-QOIGQv_DgnKet09F-168" style="edgeStyle=orthogonalEdgeStyle;rounded=0;orthogonalLoop=1;jettySize=auto;html=1;exitX=0;exitY=0.25;exitDx=0;exitDy=0;entryX=1;entryY=0.5;entryDx=0;entryDy=0;endArrow=none;endFill=0;" parent="1" source="V_U-QOIGQv_DgnKet09F-167" target="43" edge="1"><mxGeometry relative="1" as="geometry"/></mxCell><mxCell id="V_U-QOIGQv_DgnKet09F-167" value="Zona Geográfica" style="whiteSpace=wrap;html=1;align=center;" parent="1" vertex="1"><mxGeometry x="-760" y="855" width="100" height="40" as="geometry"/></mxCell><mxCell id="V_U-QOIGQv_DgnKet09F-171" value="N" style="text;html=1;strokeColor=none;fillColor=none;align=center;verticalAlign=middle;whiteSpace=wrap;rounded=0;" parent="1" vertex="1"><mxGeometry x="-770" y="855" width="10" height="10" as="geometry"/></mxCell><mxCell id="V_U-QOIGQv_DgnKet09F-177" value="1" style="text;html=1;align=center;verticalAlign=middle;resizable=0;points=[];autosize=1;strokeColor=none;fillColor=none;" parent="1" vertex="1"><mxGeometry x="-670" y="890" width="30" height="30" as="geometry"/></mxCell><mxCell id="V_U-QOIGQv_DgnKet09F-178" value="tem" style="shape=rhombus;perimeter=rhombusPerimeter;whiteSpace=wrap;html=1;align=center;container=0;" parent="1" vertex="1"><mxGeometry x="-580" y="920" width="120" height="60" as="geometry"/></mxCell><mxCell id="V_U-QOIGQv_DgnKet09F-179" value="" style="edgeStyle=orthogonalEdgeStyle;rounded=0;orthogonalLoop=1;jettySize=auto;html=1;entryX=1;entryY=0.5;entryDx=0;entryDy=0;endArrow=none;endFill=0;" parent="1" target="V_U-QOIGQv_DgnKet09F-178" edge="1"><mxGeometry relative="1" as="geometry"><mxPoint x="-100" y="930" as="sourcePoint"/><mxPoint x="-660" y="895" as="targetPoint"/><Array as="points"><mxPoint x="-100" y="930"/><mxPoint x="-100" y="950"/></Array></mxGeometry></mxCell><mxCell id="V_U-QOIGQv_DgnKet09F-180" value="N" style="text;html=1;align=center;verticalAlign=middle;resizable=0;points=[];autosize=1;strokeColor=none;fillColor=none;resizeHeight=1;resizeWidth=1;" parent="1" vertex="1"><mxGeometry x="-110" y="922.5" width="30" height="30" as="geometry"/></mxCell><mxCell id="V_U-QOIGQv_DgnKet09F-182" style="rounded=0;orthogonalLoop=1;jettySize=auto;html=1;exitX=0.5;exitY=0;exitDx=0;exitDy=0;entryX=0.5;entryY=1;entryDx=0;entryDy=0;endArrow=none;endFill=0;" parent="1" source="V_U-QOIGQv_DgnKet09F-181" target="V_U-QOIGQv_DgnKet09F-167" edge="1"><mxGeometry relative="1" as="geometry"/></mxCell><mxCell id="V_U-QOIGQv_DgnKet09F-181" value="designaçao" style="ellipse;whiteSpace=wrap;html=1;align=center;container=0;" parent="1" vertex="1"><mxGeometry x="-820" y="940" width="100" height="40" as="geometry"/></mxCell><mxCell id="agGOUGzYTLRCkL8UZT49-84" style="rounded=0;orthogonalLoop=1;jettySize=auto;html=1;exitX=0.75;exitY=1;exitDx=0;exitDy=0;endArrow=none;endFill=0;" parent="1" source="agGOUGzYTLRCkL8UZT49-73" target="agGOUGzYTLRCkL8UZT49-74" edge="1"><mxGeometry relative="1" as="geometry"/></mxCell><mxCell id="agGOUGzYTLRCkL8UZT49-96" style="rounded=0;orthogonalLoop=1;jettySize=auto;html=1;exitX=1;exitY=0.25;exitDx=0;exitDy=0;entryX=0;entryY=0.5;entryDx=0;entryDy=0;endArrow=none;endFill=0;" parent="1" source="agGOUGzYTLRCkL8UZT49-73" target="agGOUGzYTLRCkL8UZT49-90" edge="1"><mxGeometry relative="1" as="geometry"/></mxCell><mxCell id="agGOUGzYTLRCkL8UZT49-104" style="edgeStyle=orthogonalEdgeStyle;rounded=0;orthogonalLoop=1;jettySize=auto;html=1;exitX=0.75;exitY=0;exitDx=0;exitDy=0;entryX=0.5;entryY=1;entryDx=0;entryDy=0;endArrow=none;endFill=0;" parent="1" source="agGOUGzYTLRCkL8UZT49-73" target="agGOUGzYTLRCkL8UZT49-103" edge="1"><mxGeometry relative="1" as="geometry"><Array as="points"><mxPoint x="295" y="1040"/><mxPoint x="560" y="1040"/></Array></mxGeometry></mxCell><mxCell id="agGOUGzYTLRCkL8UZT49-73" value="Produto" style="whiteSpace=wrap;html=1;align=center;" parent="1" vertex="1"><mxGeometry x="220" y="1109" width="100" height="40" as="geometry"/></mxCell><mxCell id="agGOUGzYTLRCkL8UZT49-74" value="designacao" style="ellipse;whiteSpace=wrap;html=1;align=center;" parent="1" vertex="1"><mxGeometry x="295" y="1259" width="100" height="40" as="geometry"/></mxCell><mxCell id="agGOUGzYTLRCkL8UZT49-85" style="edgeStyle=orthogonalEdgeStyle;rounded=0;orthogonalLoop=1;jettySize=auto;html=1;exitX=1;exitY=0.5;exitDx=0;exitDy=0;entryX=0.5;entryY=1;entryDx=0;entryDy=0;endArrow=none;endFill=0;" parent="1" source="agGOUGzYTLRCkL8UZT49-79" target="agGOUGzYTLRCkL8UZT49-73" edge="1"><mxGeometry relative="1" as="geometry"/></mxCell><mxCell id="agGOUGzYTLRCkL8UZT49-79" value="tem" style="shape=rhombus;perimeter=rhombusPerimeter;whiteSpace=wrap;html=1;align=center;" parent="1" vertex="1"><mxGeometry x="40" y="1279" width="120" height="60" as="geometry"/></mxCell><mxCell id="agGOUGzYTLRCkL8UZT49-81" value="" style="edgeStyle=orthogonalEdgeStyle;rounded=0;orthogonalLoop=1;jettySize=auto;html=1;exitX=0.5;exitY=1;exitDx=0;exitDy=0;entryX=0;entryY=0.5;entryDx=0;entryDy=0;endArrow=none;endFill=0;" parent="1" source="n9BHDYFtltxvlKAYg7nu-10" target="agGOUGzYTLRCkL8UZT49-79" edge="1"><mxGeometry relative="1" as="geometry"><mxPoint x="-80" y="1150" as="sourcePoint"/><mxPoint x="270" y="1149" as="targetPoint"/><Array as="points"/></mxGeometry></mxCell><mxCell id="agGOUGzYTLRCkL8UZT49-82" value="N" style="text;html=1;align=center;verticalAlign=middle;resizable=0;points=[];autosize=1;strokeColor=none;fillColor=none;" parent="1" vertex="1"><mxGeometry x="240" y="1149" width="30" height="30" as="geometry"/></mxCell><mxCell id="agGOUGzYTLRCkL8UZT49-83" value="1" style="text;html=1;align=center;verticalAlign=middle;resizable=0;points=[];autosize=1;strokeColor=none;fillColor=none;" parent="1" vertex="1"><mxGeometry x="-90" y="1148" width="30" height="30" as="geometry"/></mxCell><mxCell id="agGOUGzYTLRCkL8UZT49-87" style="rounded=0;orthogonalLoop=1;jettySize=auto;html=1;exitX=0;exitY=0;exitDx=0;exitDy=0;entryX=0.896;entryY=1.02;entryDx=0;entryDy=0;entryPerimeter=0;endArrow=none;endFill=0;" parent="1" source="agGOUGzYTLRCkL8UZT49-86" target="agGOUGzYTLRCkL8UZT49-73" edge="1"><mxGeometry relative="1" as="geometry"/></mxCell><mxCell id="agGOUGzYTLRCkL8UZT49-86" value="cod Produto" style="ellipse;whiteSpace=wrap;html=1;align=center;" parent="1" vertex="1"><mxGeometry x="350" y="1199" width="100" height="40" as="geometry"/></mxCell><mxCell id="agGOUGzYTLRCkL8UZT49-89" style="rounded=0;orthogonalLoop=1;jettySize=auto;html=1;exitX=0;exitY=0.5;exitDx=0;exitDy=0;entryX=1;entryY=0.75;entryDx=0;entryDy=0;endArrow=none;endFill=0;" parent="1" source="agGOUGzYTLRCkL8UZT49-88" target="agGOUGzYTLRCkL8UZT49-73" edge="1"><mxGeometry relative="1" as="geometry"/></mxCell><mxCell id="agGOUGzYTLRCkL8UZT49-88" value="stock (kg)" style="ellipse;whiteSpace=wrap;html=1;align=center;" parent="1" vertex="1"><mxGeometry x="380" y="1130" width="100" height="40" as="geometry"/></mxCell><mxCell id="agGOUGzYTLRCkL8UZT49-90" value="preco /kg" style="ellipse;whiteSpace=wrap;html=1;align=center;" parent="1" vertex="1"><mxGeometry x="364" y="1070" width="100" height="40" as="geometry"/></mxCell><mxCell id="agGOUGzYTLRCkL8UZT49-99" value="qt Factor Producao (kg)" style="ellipse;whiteSpace=wrap;html=1;align=center;" parent="1" vertex="1"><mxGeometry x="-530" y="660" width="100" height="40" as="geometry"/></mxCell><mxCell id="agGOUGzYTLRCkL8UZT49-101" value="Preço /kg" style="ellipse;whiteSpace=wrap;html=1;align=center;" parent="1" vertex="1"><mxGeometry x="-740" y="390" width="100" height="40" as="geometry"/></mxCell><mxCell id="agGOUGzYTLRCkL8UZT49-106" style="edgeStyle=orthogonalEdgeStyle;rounded=0;orthogonalLoop=1;jettySize=auto;html=1;exitX=0.5;exitY=0;exitDx=0;exitDy=0;entryX=0;entryY=1;entryDx=0;entryDy=0;endArrow=none;endFill=0;" parent="1" source="agGOUGzYTLRCkL8UZT49-103" target="sahUQvl5ozFRLX7pKj-Z-41" edge="1"><mxGeometry relative="1" as="geometry"/></mxCell><mxCell id="agGOUGzYTLRCkL8UZT49-108" style="rounded=0;orthogonalLoop=1;jettySize=auto;html=1;exitX=0;exitY=0;exitDx=0;exitDy=0;endArrow=none;endFill=0;entryX=1;entryY=1;entryDx=0;entryDy=0;" parent="1" source="agGOUGzYTLRCkL8UZT49-103" target="agGOUGzYTLRCkL8UZT49-109" edge="1"><mxGeometry relative="1" as="geometry"><mxPoint x="470" y="870" as="targetPoint"/></mxGeometry></mxCell><mxCell id="agGOUGzYTLRCkL8UZT49-111" style="edgeStyle=orthogonalEdgeStyle;rounded=0;orthogonalLoop=1;jettySize=auto;html=1;exitX=1;exitY=0.5;exitDx=0;exitDy=0;entryX=0;entryY=0.5;entryDx=0;entryDy=0;endArrow=none;endFill=0;" parent="1" source="agGOUGzYTLRCkL8UZT49-103" target="agGOUGzYTLRCkL8UZT49-110" edge="1"><mxGeometry relative="1" as="geometry"/></mxCell><mxCell id="agGOUGzYTLRCkL8UZT49-103" value="tem" style="shape=rhombus;perimeter=rhombusPerimeter;whiteSpace=wrap;html=1;align=center;" parent="1" vertex="1"><mxGeometry x="500" y="900" width="120" height="60" as="geometry"/></mxCell><mxCell id="agGOUGzYTLRCkL8UZT49-105" value="N" style="text;html=1;align=center;verticalAlign=middle;resizable=0;points=[];autosize=1;strokeColor=none;fillColor=none;" parent="1" vertex="1"><mxGeometry x="270" y="1080" width="30" height="30" as="geometry"/></mxCell><mxCell id="agGOUGzYTLRCkL8UZT49-107" value="N" style="text;html=1;align=center;verticalAlign=middle;resizable=0;points=[];autosize=1;strokeColor=none;fillColor=none;" parent="1" vertex="1"><mxGeometry x="950" y="855" width="30" height="30" as="geometry"/></mxCell><mxCell id="agGOUGzYTLRCkL8UZT49-109" value="qt Produto (kg)" style="ellipse;whiteSpace=wrap;html=1;align=center;" parent="1" vertex="1"><mxGeometry x="395" y="865" width="100" height="40" as="geometry"/></mxCell><mxCell id="agGOUGzYTLRCkL8UZT49-110" value="preco pedido&lt;br&gt;/kg" style="ellipse;whiteSpace=wrap;html=1;align=center;" parent="1" vertex="1"><mxGeometry x="640" y="910" width="100" height="40" as="geometry"/></mxCell><mxCell id="agGOUGzYTLRCkL8UZT49-112" value="dataAtribuicao" style="ellipse;whiteSpace=wrap;html=1;align=center;" parent="1" vertex="1"><mxGeometry x="1080" y="740" width="100" height="40" as="geometry"/></mxCell><mxCell id="agGOUGzYTLRCkL8UZT49-114" value="N" style="text;html=1;align=center;verticalAlign=middle;resizable=0;points=[];autosize=1;strokeColor=none;fillColor=none;" parent="1" vertex="1"><mxGeometry x="1285" y="670" width="30" height="30" as="geometry"/></mxCell><mxCell id="agGOUGzYTLRCkL8UZT49-115" value="N" style="text;html=1;align=center;verticalAlign=middle;resizable=0;points=[];autosize=1;strokeColor=none;fillColor=none;" parent="1" vertex="1"><mxGeometry x="1120" y="482.5" width="30" height="30" as="geometry"/></mxCell><mxCell id="agGOUGzYTLRCkL8UZT49-116" value="1" style="text;html=1;align=center;verticalAlign=middle;resizable=0;points=[];autosize=1;strokeColor=none;fillColor=none;" parent="1" vertex="1"><mxGeometry x="1150" y="482.5" width="30" height="30" as="geometry"/></mxCell><mxCell id="agGOUGzYTLRCkL8UZT49-117" value="N" style="text;html=1;align=center;verticalAlign=middle;resizable=0;points=[];autosize=1;strokeColor=none;fillColor=none;" parent="1" vertex="1"><mxGeometry x="1557" y="785" width="30" height="30" as="geometry"/></mxCell><mxCell id="obOQ1xtaaC5ebbHOoG0I-75" style="edgeStyle=orthogonalEdgeStyle;rounded=0;orthogonalLoop=1;jettySize=auto;html=1;exitX=0.5;exitY=1;exitDx=0;exitDy=0;entryX=0.5;entryY=0;entryDx=0;entryDy=0;endArrow=none;endFill=0;" parent="1" source="obOQ1xtaaC5ebbHOoG0I-73" target="n9BHDYFtltxvlKAYg7nu-44" edge="1"><mxGeometry relative="1" as="geometry"/></mxCell><mxCell id="obOQ1xtaaC5ebbHOoG0I-73" value="possuí" style="shape=rhombus;perimeter=rhombusPerimeter;whiteSpace=wrap;html=1;align=center;" parent="1" vertex="1"><mxGeometry x="-1300" y="1039" width="120" height="60" as="geometry"/></mxCell><mxCell id="obOQ1xtaaC5ebbHOoG0I-76" value="1" style="text;html=1;align=center;verticalAlign=middle;resizable=0;points=[];autosize=1;strokeColor=none;fillColor=none;" parent="1" vertex="1"><mxGeometry x="-845" y="1143" width="30" height="30" as="geometry"/></mxCell><mxCell id="obOQ1xtaaC5ebbHOoG0I-77" value="N" style="text;html=1;align=center;verticalAlign=middle;resizable=0;points=[];autosize=1;strokeColor=none;fillColor=none;" parent="1" vertex="1"><mxGeometry x="-1190" y="1178" width="30" height="30" as="geometry"/></mxCell><mxCell id="obOQ1xtaaC5ebbHOoG0I-84" style="edgeStyle=orthogonalEdgeStyle;rounded=0;orthogonalLoop=1;jettySize=auto;html=1;exitX=1;exitY=0.5;exitDx=0;exitDy=0;entryX=0;entryY=0.75;entryDx=0;entryDy=0;endArrow=none;endFill=0;" parent="1" source="obOQ1xtaaC5ebbHOoG0I-78" target="V_U-QOIGQv_DgnKet09F-167" edge="1"><mxGeometry relative="1" as="geometry"/></mxCell><mxCell id="obOQ1xtaaC5ebbHOoG0I-78" value="possuí" style="shape=rhombus;perimeter=rhombusPerimeter;whiteSpace=wrap;html=1;align=center;" parent="1" vertex="1"><mxGeometry x="-970" y="895" width="120" height="60" as="geometry"/></mxCell><mxCell id="obOQ1xtaaC5ebbHOoG0I-79" value="1" style="text;html=1;align=center;verticalAlign=middle;resizable=0;points=[];autosize=1;strokeColor=none;fillColor=none;" parent="1" vertex="1"><mxGeometry x="-1015" y="1000" width="30" height="30" as="geometry"/></mxCell><mxCell id="obOQ1xtaaC5ebbHOoG0I-85" value="1" style="text;html=1;align=center;verticalAlign=middle;resizable=0;points=[];autosize=1;strokeColor=none;fillColor=none;" parent="1" vertex="1"><mxGeometry x="-790" y="885" width="30" height="30" as="geometry"/></mxCell><mxCell id="obOQ1xtaaC5ebbHOoG0I-87" style="rounded=0;orthogonalLoop=1;jettySize=auto;html=1;exitX=0.5;exitY=0;exitDx=0;exitDy=0;entryX=0.5;entryY=1;entryDx=0;entryDy=0;endArrow=none;endFill=0;" parent="1" source="obOQ1xtaaC5ebbHOoG0I-86" target="n9BHDYFtltxvlKAYg7nu-93" edge="1"><mxGeometry relative="1" as="geometry"/></mxCell><mxCell id="obOQ1xtaaC5ebbHOoG0I-86" value="cod Tipo Sensor" style="ellipse;whiteSpace=wrap;html=1;align=center;container=0;" parent="1" vertex="1"><mxGeometry x="-813" y="1219" width="100" height="40" as="geometry"/></mxCell><mxCell id="39lm9jB_ZuukBpRRwhGs-74" value="1" style="text;html=1;align=center;verticalAlign=middle;resizable=0;points=[];autosize=1;strokeColor=none;fillColor=none;" parent="1" vertex="1"><mxGeometry x="-365" y="35" width="30" height="30" as="geometry"/></mxCell><mxCell id="74" value="1" style="text;html=1;strokeColor=none;fillColor=none;align=center;verticalAlign=middle;whiteSpace=wrap;rounded=0;" parent="1" vertex="1"><mxGeometry x="-1140" y="982.5" width="25" height="15" as="geometry"/></mxCell><mxCell id="75" value="N" style="text;html=1;strokeColor=none;fillColor=none;align=center;verticalAlign=middle;whiteSpace=wrap;rounded=0;" parent="1" vertex="1"><mxGeometry x="-1260" y="1189" width="20" height="10" as="geometry"/></mxCell><mxCell id="76" value="1" style="text;html=1;strokeColor=none;fillColor=none;align=center;verticalAlign=middle;whiteSpace=wrap;rounded=0;" parent="1" vertex="1"><mxGeometry x="205" y="952.5" width="60" height="30" as="geometry"/></mxCell><mxCell id="77" value="1" style="text;html=1;strokeColor=none;fillColor=none;align=center;verticalAlign=middle;whiteSpace=wrap;rounded=0;" parent="1" vertex="1"><mxGeometry x="-25" y="1099" width="15" height="9" as="geometry"/></mxCell><mxCell id="80" value="1" style="text;html=1;strokeColor=none;fillColor=none;align=center;verticalAlign=middle;whiteSpace=wrap;rounded=0;" parent="1" vertex="1"><mxGeometry x="-20" y="445" width="15" height="25" as="geometry"/></mxCell><mxCell id="85" value="N" style="text;html=1;strokeColor=none;fillColor=none;align=center;verticalAlign=middle;whiteSpace=wrap;rounded=0;" parent="1" vertex="1"><mxGeometry x="-95" y="490" width="60" height="30" as="geometry"/></mxCell><mxCell id="86" value="1" style="text;html=1;strokeColor=none;fillColor=none;align=center;verticalAlign=middle;whiteSpace=wrap;rounded=0;" parent="1" vertex="1"><mxGeometry x="230" y="205" width="20" height="15" as="geometry"/></mxCell><mxCell id="88" value="1" style="text;html=1;strokeColor=none;fillColor=none;align=center;verticalAlign=middle;whiteSpace=wrap;rounded=0;" parent="1" vertex="1"><mxGeometry x="1080" y="815" width="25" height="20" as="geometry"/></mxCell><mxCell id="92" value="1" style="text;html=1;align=center;verticalAlign=middle;resizable=0;points=[];autosize=1;strokeColor=none;fillColor=none;" parent="1" vertex="1"><mxGeometry x="1515" y="815" width="20" height="20" as="geometry"/></mxCell><mxCell id="RbGkJxQxw0nZ-CFQPRX_-93" value="" style="rounded=0;orthogonalLoop=1;jettySize=auto;html=1;endArrow=none;endFill=0;entryX=0;entryY=1;entryDx=0;entryDy=0;exitX=1;exitY=0.5;exitDx=0;exitDy=0;" parent="1" source="RbGkJxQxw0nZ-CFQPRX_-92" target="43" edge="1"><mxGeometry relative="1" as="geometry"/></mxCell><mxCell id="RbGkJxQxw0nZ-CFQPRX_-92" value="dataFim" style="ellipse;whiteSpace=wrap;html=1;align=center;container=0;" parent="1" vertex="1"><mxGeometry x="-1080" y="805" width="100" height="40" as="geometry"/></mxCell><mxCell id="RbGkJxQxw0nZ-CFQPRX_-95" style="rounded=0;orthogonalLoop=1;jettySize=auto;html=1;endArrow=none;endFill=0;" parent="1" source="RbGkJxQxw0nZ-CFQPRX_-94" edge="1"><mxGeometry relative="1" as="geometry"><mxPoint x="-122" y="1150" as="targetPoint"/></mxGeometry></mxCell><mxCell id="RbGkJxQxw0nZ-CFQPRX_-94" value="tempoCrescimento" style="ellipse;whiteSpace=wrap;html=1;align=center;" parent="1" vertex="1"><mxGeometry x="-290" y="1159" width="110" height="40" as="geometry"/></mxCell><mxCell id="RbGkJxQxw0nZ-CFQPRX_-97" style="rounded=0;orthogonalLoop=1;jettySize=auto;html=1;entryX=0.75;entryY=0;entryDx=0;entryDy=0;endArrow=none;endFill=0;" parent="1" source="RbGkJxQxw0nZ-CFQPRX_-96" target="n9BHDYFtltxvlKAYg7nu-76" edge="1"><mxGeometry relative="1" as="geometry"/></mxCell><mxCell id="RbGkJxQxw0nZ-CFQPRX_-96" value="dataPrevistaPlano" style="ellipse;whiteSpace=wrap;html=1;align=center;" parent="1" vertex="1"><mxGeometry x="340" y="50" width="110" height="40" as="geometry"/></mxCell><mxCell id="RbGkJxQxw0nZ-CFQPRX_-109" value="" style="edgeStyle=none;rounded=0;orthogonalLoop=1;jettySize=auto;html=1;endArrow=none;endFill=0;entryX=0.658;entryY=0.167;entryDx=0;entryDy=0;entryPerimeter=0;" parent="1" source="RbGkJxQxw0nZ-CFQPRX_-108" target="n9BHDYFtltxvlKAYg7nu-215" edge="1"><mxGeometry relative="1" as="geometry"/></mxCell><mxCell id="RbGkJxQxw0nZ-CFQPRX_-108" value="valorTotal (t)" style="ellipse;whiteSpace=wrap;html=1;align=center;" parent="1" vertex="1"><mxGeometry x="140" y="882.5" width="100" height="40" as="geometry"/></mxCell><mxCell id="RbGkJxQxw0nZ-CFQPRX_-110" value="porta" style="ellipse;whiteSpace=wrap;html=1;align=center;" parent="1" vertex="1"><mxGeometry x="1740" y="580" width="100" height="40" as="geometry"/></mxCell><mxCell id="RbGkJxQxw0nZ-CFQPRX_-113" style="edgeStyle=none;rounded=0;orthogonalLoop=1;jettySize=auto;html=1;exitX=0.5;exitY=0;exitDx=0;exitDy=0;entryX=0.5;entryY=1;entryDx=0;entryDy=0;endArrow=none;endFill=0;" parent="1" source="RbGkJxQxw0nZ-CFQPRX_-112" target="n9BHDYFtltxvlKAYg7nu-2" edge="1"><mxGeometry relative="1" as="geometry"/></mxCell><mxCell id="RbGkJxQxw0nZ-CFQPRX_-112" value="designacao" style="ellipse;whiteSpace=wrap;html=1;align=center;fontFamily=Helvetica;fontSize=12;fontColor=default;strokeColor=default;fillColor=default;" parent="1" vertex="1"><mxGeometry x="-720" y="1588" width="100" height="40" as="geometry"/></mxCell><mxCell id="RbGkJxQxw0nZ-CFQPRX_-115" style="edgeStyle=none;rounded=0;orthogonalLoop=1;jettySize=auto;html=1;endArrow=none;endFill=0;entryX=0;entryY=0.5;entryDx=0;entryDy=0;" parent="1" source="RbGkJxQxw0nZ-CFQPRX_-114" target="n9BHDYFtltxvlKAYg7nu-20" edge="1"><mxGeometry relative="1" as="geometry"/></mxCell><mxCell id="RbGkJxQxw0nZ-CFQPRX_-114" value="tipoEdificio" style="ellipse;whiteSpace=wrap;html=1;align=center;" parent="1" vertex="1"><mxGeometry x="-1215" y="1508" width="100" height="40" as="geometry"/></mxCell><mxCell id="A4WFkAp2w_rosGS3YEw1-93" style="edgeStyle=orthogonalEdgeStyle;rounded=0;orthogonalLoop=1;jettySize=auto;html=1;exitX=0.5;exitY=1;exitDx=0;exitDy=0;entryX=0.5;entryY=0;entryDx=0;entryDy=0;endArrow=none;endFill=0;" parent="1" source="A4WFkAp2w_rosGS3YEw1-92" target="n9BHDYFtltxvlKAYg7nu-2" edge="1"><mxGeometry relative="1" as="geometry"/></mxCell><mxCell id="A4WFkAp2w_rosGS3YEw1-94" style="edgeStyle=orthogonalEdgeStyle;rounded=0;orthogonalLoop=1;jettySize=auto;html=1;exitX=0.5;exitY=0;exitDx=0;exitDy=0;entryX=0.75;entryY=1;entryDx=0;entryDy=0;endArrow=none;endFill=0;" parent="1" source="A4WFkAp2w_rosGS3YEw1-92" target="V_U-QOIGQv_DgnKet09F-167" edge="1"><mxGeometry relative="1" as="geometry"><Array as="points"><mxPoint x="-660" y="1339"/><mxPoint x="-660" y="1117"/><mxPoint x="-685" y="1117"/></Array></mxGeometry></mxCell><mxCell id="A4WFkAp2w_rosGS3YEw1-92" value="tem" style="shape=rhombus;perimeter=rhombusPerimeter;whiteSpace=wrap;html=1;align=center;" parent="1" vertex="1"><mxGeometry x="-670" y="1339" width="120" height="60" as="geometry"/></mxCell><mxCell id="A4WFkAp2w_rosGS3YEw1-95" value="1" style="text;html=1;strokeColor=none;fillColor=none;align=center;verticalAlign=middle;whiteSpace=wrap;rounded=0;" parent="1" vertex="1"><mxGeometry x="-690" y="1483" width="60" height="30" as="geometry"/></mxCell><mxCell id="A4WFkAp2w_rosGS3YEw1-96" value="N" style="text;html=1;strokeColor=none;fillColor=none;align=center;verticalAlign=middle;whiteSpace=wrap;rounded=0;" parent="1" vertex="1"><mxGeometry x="-713" y="892.5" width="30" height="30" as="geometry"/></mxCell><mxCell id="FqA-_H5Wm22VkjYRgIAT-102" style="edgeStyle=orthogonalEdgeStyle;rounded=0;orthogonalLoop=1;jettySize=auto;html=1;exitX=0;exitY=0.5;exitDx=0;exitDy=0;entryX=1;entryY=0.5;entryDx=0;entryDy=0;endArrow=none;endFill=0;" parent="1" source="95" target="FqA-_H5Wm22VkjYRgIAT-100" edge="1"><mxGeometry relative="1" as="geometry"/></mxCell><mxCell id="95" value="Ficha Tecnica" style="whiteSpace=wrap;html=1;align=center;" parent="1" vertex="1"><mxGeometry x="-1115" y="570" width="100" height="40" as="geometry"/></mxCell><mxCell id="97" style="edgeStyle=orthogonalEdgeStyle;rounded=0;orthogonalLoop=1;jettySize=auto;html=1;exitX=0;exitY=0.5;exitDx=0;exitDy=0;entryX=1;entryY=0.5;entryDx=0;entryDy=0;endArrow=none;endFill=0;" parent="1" source="96" target="95" edge="1"><mxGeometry relative="1" as="geometry"/></mxCell><mxCell id="96" value="tem" style="shape=rhombus;perimeter=rhombusPerimeter;whiteSpace=wrap;html=1;align=center;" parent="1" vertex="1"><mxGeometry x="-965" y="560" width="120" height="60" as="geometry"/></mxCell><mxCell id="98" value="Componente" style="whiteSpace=wrap;html=1;align=center;" parent="1" vertex="1"><mxGeometry x="-1510" y="570" width="100" height="40" as="geometry"/></mxCell><mxCell id="FqA-_H5Wm22VkjYRgIAT-103" style="edgeStyle=orthogonalEdgeStyle;rounded=0;orthogonalLoop=1;jettySize=auto;html=1;exitX=0;exitY=0.5;exitDx=0;exitDy=0;entryX=1;entryY=0.5;entryDx=0;entryDy=0;endArrow=none;endFill=0;" parent="1" source="FqA-_H5Wm22VkjYRgIAT-100" target="98" edge="1"><mxGeometry relative="1" as="geometry"/></mxCell><mxCell id="FqA-_H5Wm22VkjYRgIAT-112" style="edgeStyle=orthogonalEdgeStyle;rounded=0;orthogonalLoop=1;jettySize=auto;html=1;exitX=0.5;exitY=1;exitDx=0;exitDy=0;entryX=0.5;entryY=0;entryDx=0;entryDy=0;endArrow=none;endFill=0;" parent="1" source="FqA-_H5Wm22VkjYRgIAT-100" target="FqA-_H5Wm22VkjYRgIAT-111" edge="1"><mxGeometry relative="1" as="geometry"/></mxCell><mxCell id="FqA-_H5Wm22VkjYRgIAT-100" value="tem" style="shape=rhombus;perimeter=rhombusPerimeter;whiteSpace=wrap;html=1;align=center;" parent="1" vertex="1"><mxGeometry x="-1335" y="560" width="120" height="60" as="geometry"/></mxCell><mxCell id="FqA-_H5Wm22VkjYRgIAT-109" style="rounded=0;orthogonalLoop=1;jettySize=auto;html=1;exitX=1;exitY=0.5;exitDx=0;exitDy=0;entryX=0;entryY=0.25;entryDx=0;entryDy=0;endArrow=none;endFill=0;" parent="1" source="FqA-_H5Wm22VkjYRgIAT-105" target="98" edge="1"><mxGeometry relative="1" as="geometry"/></mxCell><mxCell id="FqA-_H5Wm22VkjYRgIAT-105" value="Substância" style="ellipse;whiteSpace=wrap;html=1;align=center;" parent="1" vertex="1"><mxGeometry x="-1654" y="540" width="100" height="40" as="geometry"/></mxCell><mxCell id="FqA-_H5Wm22VkjYRgIAT-108" style="rounded=0;orthogonalLoop=1;jettySize=auto;html=1;exitX=1;exitY=0.5;exitDx=0;exitDy=0;entryX=0;entryY=0.75;entryDx=0;entryDy=0;endArrow=none;endFill=0;" parent="1" source="FqA-_H5Wm22VkjYRgIAT-106" target="98" edge="1"><mxGeometry relative="1" as="geometry"/></mxCell><mxCell id="FqA-_H5Wm22VkjYRgIAT-106" value="Categoria" style="ellipse;whiteSpace=wrap;html=1;align=center;" parent="1" vertex="1"><mxGeometry x="-1654" y="600" width="100" height="40" as="geometry"/></mxCell><mxCell id="FqA-_H5Wm22VkjYRgIAT-113" style="edgeStyle=orthogonalEdgeStyle;rounded=0;orthogonalLoop=1;jettySize=auto;html=1;exitX=0.5;exitY=1;exitDx=0;exitDy=0;entryX=0.5;entryY=0;entryDx=0;entryDy=0;endArrow=none;endFill=0;" parent="1" source="FqA-_H5Wm22VkjYRgIAT-110" target="FqA-_H5Wm22VkjYRgIAT-100" edge="1"><mxGeometry relative="1" as="geometry"/></mxCell><mxCell id="FqA-_H5Wm22VkjYRgIAT-110" value="Unidade" style="ellipse;whiteSpace=wrap;html=1;align=center;" parent="1" vertex="1"><mxGeometry x="-1330" y="495" width="100" height="40" as="geometry"/></mxCell><mxCell id="FqA-_H5Wm22VkjYRgIAT-111" value="Quantidade" style="ellipse;whiteSpace=wrap;html=1;align=center;" parent="1" vertex="1"><mxGeometry x="-1325" y="640" width="100" height="40" as="geometry"/></mxCell><mxCell id="101" value="1" style="text;html=1;align=center;verticalAlign=middle;resizable=0;points=[];autosize=1;strokeColor=none;fillColor=none;" parent="1" vertex="1"><mxGeometry x="-760" y="515" width="30" height="30" as="geometry"/></mxCell><mxCell id="103" value="1" style="text;html=1;align=center;verticalAlign=middle;resizable=0;points=[];autosize=1;strokeColor=none;fillColor=none;" parent="1" vertex="1"><mxGeometry x="-1020" y="585" width="30" height="30" as="geometry"/></mxCell><mxCell id="x7dTmbcTbPzeT0sO2_s_-103" value="N" style="text;html=1;align=center;verticalAlign=middle;resizable=0;points=[];autosize=1;strokeColor=none;fillColor=none;" parent="1" vertex="1"><mxGeometry x="-1410" y="585" width="30" height="30" as="geometry"/></mxCell><mxCell id="x7dTmbcTbPzeT0sO2_s_-104" value="N" style="text;html=1;align=center;verticalAlign=middle;resizable=0;points=[];autosize=1;strokeColor=none;fillColor=none;" parent="1" vertex="1"><mxGeometry x="-1140" y="585" width="30" height="30" as="geometry"/></mxCell><mxCell id="202" value="N" style="text;html=1;strokeColor=none;fillColor=none;align=center;verticalAlign=middle;whiteSpace=wrap;rounded=0;" parent="1" vertex="1"><mxGeometry x="-2830" y="635" width="20" height="10" as="geometry"/></mxCell></root></mxGraphModel></diagram></mxfile>